<?xml version="1.0" encoding="UTF-8"?>
<svg width="562px" height="388px" viewBox="0 0 562 388" version="1.1" xmlns="http://www.w3.org/2000/svg" xmlns:xlink="http://www.w3.org/1999/xlink">
    <!-- Generator: Sketch 44.1 (41455) - http://www.bohemiancoding.com/sketch -->
    <title>Artboard 2 Copy</title>
    <desc>Created with Sketch.</desc>
    <defs>
        <polygon id="path-1" points="9.3083909 0.49443981 0.234860638 0.49443981 0.234860638 3.6021156 9.3083909 3.6021156 9.3083909 0.49443981"></polygon>
        <polygon id="path-3" points="16.127874 1.51154418 16.127874 2.89484666 0 2.89484666 0 1.51154418 0 0.128241707 16.127874 0.128241707"></polygon>
        <polygon id="path-5" points="16.500678 0.186253718 16.500678 15.6950453 0 15.6950453 0 0.186253718"></polygon>
        <polygon id="path-7" points="0 0.130094409 0 2.57045014 1.69675536 2.57045014 1.69675536 0.130094409 0 0.130094409"></polygon>
        <polygon id="path-9" points="-0.000151534066 0.0881897863 9.64340648 0.0881897863 9.64340648 7.34962708 -0.000151534066 7.34962708"></polygon>
        <polygon id="path-11" points="15.550303 19.8321529 6.0246243e-05 19.8321529 6.0246243e-05 0.145654604 15.550303 0.145654604 15.550303 19.8321529"></polygon>
    </defs>
    <g id="Page-1" stroke="none" stroke-width="1" fill="none" fill-rule="evenodd">
        <g id="Artboard-2-Copy">
            <g id="Group-2" transform="translate(82.000000, 34.000000)">
                <ellipse id="Oval-2-Copy" fill="#E6EEFA" opacity="0.294044384" cx="324.415172" cy="221.983075" rx="74.0082759" ry="74.1080745"></ellipse>
                <ellipse id="Oval-2-Copy-2" fill="#E6EEFA" opacity="0.294044384" cx="284.973793" cy="74.1080745" rx="74.0082759" ry="74.1080745"></ellipse>
                <ellipse id="Oval-2-Copy-3" fill="#E6EEFA" opacity="0.294044384" cx="74.0082759" cy="263.314596" rx="74.0082759" ry="74.1080745"></ellipse>
                <ellipse id="Oval-2" fill="#F0F6FF" cx="210.74931" cy="194.500893" rx="136.452759" ry="136.636762"></ellipse>
                <g id="Page-1" transform="translate(233.298707, 284.241139)">
                    <path d="M15.5797828,12.1012696 L11.8886201,5.86519092 L11.8886201,3.6871083 L8.90978695,3.6871083 L7.5712779,3.6871083 L4.59360117,3.6871083 L4.59360117,5.86519092 L0.901860224,12.1012696 C0.901860224,12.1012696 0.110896776,13.1903109 0.110896776,14.8739537 L0.110896776,36.4567725 C0.110896776,36.4567725 0.112631345,39.6480515 7.5712779,39.9056928 L7.5712779,39.921325 C7.80081919,39.9236409 8.02342221,39.9224829 8.24082152,39.921325 C8.45879902,39.9224829 8.68024566,39.9236409 8.90978695,39.921325 L8.90978695,39.9056928 C16.3690117,39.6480515 16.3707463,36.4567725 16.3707463,36.4567725 L16.3707463,14.8739537 C16.3707463,13.1903109 15.5797828,12.1012696 15.5797828,12.1012696" id="Fill-1" fill="#5757E7"></path>
                    <path d="M11.6753259,7.31516172 L4.80643278,7.31516172 L1.80447209,12.387512 C1.80447209,12.387512 1.11064451,13.3422325 1.11064451,14.8191832 L1.11064451,35.760504 C1.11064451,35.760504 1.1112227,38.5603997 7.65401684,38.7861977 L7.65401684,38.799514 C7.85522684,38.8018299 8.04949856,38.8018299 8.24087934,38.799514 C8.43226011,38.8018299 8.62653184,38.8018299 8.82774184,38.799514 L8.82774184,38.7861977 C15.3699578,38.5603997 15.3711142,35.760504 15.3711142,35.760504 L15.3711142,14.8191832 C15.3711142,13.3422325 14.6772866,12.387512 14.6772866,12.387512 L11.6753259,7.31516172 Z" id="Fill-3" fill="#5757E7"></path>
                    <path d="M15.5797828,12.1012696 L11.8886201,5.86519092 L11.8886201,3.6871083 L8.90978695,3.6871083 L7.5712779,3.6871083 L4.59360117,3.6871083 L4.59360117,5.86519092 L0.901860224,12.1012696 C0.901860224,12.1012696 0.110896776,13.1903109 0.110896776,14.8739537 L0.110896776,36.4567725 C0.110896776,36.4567725 0.112631345,39.6480515 7.5712779,39.9056928 L7.5712779,39.921325 C7.80081919,39.9236409 8.02342221,39.9224829 8.24082152,39.921325 C8.45879902,39.9224829 8.68024566,39.9236409 8.90978695,39.921325 L8.90978695,39.9056928 C16.3690117,39.6480515 16.3707463,36.4567725 16.3707463,36.4567725 L16.3707463,14.8739537 C16.3707463,13.1903109 15.5797828,12.1012696 15.5797828,12.1012696 Z" id="Stroke-5" stroke="#FEFEFE" stroke-width="0.384"></path>
                    <g id="Group-9" transform="translate(3.469138, 0.084761)">
                        <mask id="mask-2" fill="white">
                            <use xlink:href="#path-1"></use>
                        </mask>
                        <g id="Clip-8"></g>
                        <path d="M9.3083909,3.22115378 C9.3083909,3.43131964 9.13782495,3.6021156 8.92967667,3.6021156 L0.615309431,3.6021156 C0.405426586,3.6021156 0.234860638,3.43131964 0.234860638,3.22115378 L0.234860638,0.874591073 C0.234860638,0.664425206 0.405426586,0.494208222 0.615309431,0.494208222 L8.92967667,0.494208222 C9.13782495,0.494208222 9.3083909,0.664425206 9.3083909,0.874591073 L9.3083909,3.22115378 Z" id="Fill-7" fill="#0B0BC8" mask="url(#mask-2)"></path>
                    </g>
                    <path d="M8.78044592,0.876964848 L4.34920041,0.876964848 C4.17979084,0.876964848 4.0421817,1.01418058 4.0421817,1.18381859 L4.0421817,3.08168007 C4.0421817,3.25131808 4.17979084,3.38911278 4.34920041,3.38911278 L8.78044592,3.38911278 L8.78044592,0.876964848 Z" id="Fill-10" fill="#5757E7"></path>
                    <path d="M14.8497027,24.7266222 C14.8497027,26.9081787 11.8911063,28.6757721 8.24099497,28.6757721 C4.59088368,28.6757721 1.63170903,26.9081787 1.63170903,24.7266222 C1.63170903,22.5444868 4.59088368,20.7774724 8.24099497,20.7774724 C11.8911063,20.7774724 14.8497027,22.5444868 14.8497027,24.7266222" id="Fill-12" fill="#66A0CB"></path>
                    <path d="M4.24807503,22.7398311 C4.26946805,22.684829 4.30705038,22.6361956 4.35908745,22.5950888 C4.41170271,22.5545609 4.46952167,22.5261914 4.53254434,22.5117172 C4.59556702,22.4995588 4.65916788,22.4995588 4.72161236,22.5117172 C4.78521322,22.5261914 4.8366721,22.5609296 4.87425443,22.6159316 L5.4183309,25.8014209 L6.05260495,22.7074088 C6.07457616,22.6628282 6.10811116,22.6315638 6.15147538,22.6112999 C6.19599598,22.5927729 6.23936021,22.5840883 6.28388081,22.5869832 C6.32782322,22.5892991 6.36598374,22.6037733 6.39951874,22.62809 C6.43247555,22.6524067 6.45155581,22.684829 6.45675952,22.7236199 L7.0164471,27.0971543 C7.01182159,27.1359452 6.99100676,27.1672096 6.95573719,27.1915263 C6.91931124,27.216422 6.87941616,27.2332121 6.83605193,27.2407387 C6.79210952,27.2488442 6.74932348,27.2488442 6.70885021,27.2407387 C6.66664236,27.2332121 6.64120202,27.2117902 6.62963822,27.178789 L6.20119969,23.9446663 L5.61664995,26.6930337 C5.59988245,26.7260349 5.57212934,26.7538255 5.53454702,26.7752473 C5.49580831,26.7972482 5.45244409,26.8070906 5.40561072,26.8070906 C5.35935555,26.8070906 5.31367857,26.7984061 5.27031434,26.7798791 C5.22579374,26.7596152 5.19052417,26.7283508 5.16277107,26.6843491 L4.62678926,23.4166462 L4.50305667,27.3368476 C4.49785297,27.3744806 4.47530357,27.4022711 4.43367391,27.4184823 C4.39262245,27.4346934 4.34983641,27.4433779 4.305894,27.4433779 C4.2613734,27.4433779 4.22263469,27.4317986 4.18678693,27.4063239 C4.15093917,27.3814282 4.13359348,27.347269 4.13359348,27.3032674 L4.24807503,22.7398311 Z" id="Fill-14" fill="#FEFEFE"></path>
                    <path d="M7.56925423,23.003899 C7.58023984,22.9436862 7.60394561,22.8973686 7.63921518,22.8678412 C7.67564113,22.8371558 7.71380165,22.8221026 7.75485311,22.8221026 C7.79648277,22.8221026 7.83579966,22.8359979 7.87396018,22.8637884 C7.91269889,22.891 7.9398738,22.9326858 7.9566413,22.9882668 C7.96762691,23.3333325 7.97398699,23.6610292 7.97687794,23.9696198 C7.97976889,24.2776315 7.97976889,24.5815904 7.97687794,24.8809176 C7.97398699,25.1814027 7.96993966,25.4847826 7.96531415,25.7933732 C7.95953225,26.1019639 7.9566413,26.4290816 7.9566413,26.7753052 C7.95143759,26.8413077 7.92946639,26.8916781 7.89072768,26.9275742 C7.85198897,26.9628913 7.8115157,26.9825762 7.76699509,26.9854711 C7.72363087,26.9889449 7.68026665,26.9721548 7.63921518,26.9397325 C7.59816372,26.9067313 7.57445794,26.8575189 7.56925423,26.7909374 C7.56925423,26.4452927 7.57156699,26.118175 7.57734889,25.8095844 C7.58255259,25.5009937 7.58717811,25.1976138 7.59006906,24.8977077 C7.59238182,24.5978016 7.59238182,24.2944216 7.59006906,23.985252 C7.58717811,23.6772403 7.58023984,23.3501227 7.56925423,23.003899 L7.56925423,23.003899 Z M7.23101328,23.1185349 C7.19285277,23.1185349 7.16567785,23.1011658 7.14891035,23.0658487 C7.13214285,23.0299526 7.1240482,22.9905827 7.1240482,22.9454231 C7.1240482,22.9025794 7.12983009,22.8603146 7.14023751,22.8221026 C7.1518013,22.7833117 7.1685688,22.7561001 7.19054001,22.739889 L8.33593372,22.6570964 C8.36310863,22.6570964 8.38565803,22.6762024 8.40126915,22.7155723 C8.41803665,22.7526263 8.42728768,22.796628 8.43017863,22.8429455 C8.43306958,22.889842 8.4261313,22.9338437 8.40994199,22.9749505 C8.39317449,23.0160574 8.36542139,23.0392161 8.32783906,23.0450058 L7.23101328,23.1185349 Z M7.21540216,27.1302134 C7.17088156,27.1302134 7.14255027,27.1105285 7.12867372,27.0723165 C7.11479716,27.0329466 7.1072807,26.9924187 7.1072807,26.9478381 C7.1072807,26.9044154 7.11306259,26.8621506 7.1240482,26.8250966 C7.1350338,26.7863056 7.14891035,26.760831 7.16567785,26.7504095 L8.34402837,26.6265101 C8.37640699,26.6155097 8.40242553,26.628826 8.42208397,26.6681959 C8.44174242,26.7064079 8.45041527,26.7504095 8.45041527,26.7996219 C8.45041527,26.8499923 8.44347699,26.8963098 8.4261313,26.9397325 C8.40994199,26.9837342 8.37871975,27.0086299 8.33593372,27.0144196 L7.21540216,27.1302134 Z" id="Fill-16" fill="#FEFEFE"></path>
                    <path d="M8.75616196,22.7811116 C8.76136566,22.736531 8.78333687,22.7046876 8.82149739,22.6861606 C8.86023609,22.6664757 8.90302213,22.6583701 8.94985549,22.6618439 C8.99611066,22.6641598 9.0388967,22.6757392 9.07763541,22.69774 C9.11521773,22.7203198 9.13487618,22.7504262 9.13487618,22.7892172 C9.13487618,22.8777995 9.12967247,23.0300684 9.11810868,23.2471819 C9.10770127,23.4648744 9.09671566,23.7144102 9.08573006,23.9986841 C9.07474446,24.2812211 9.06202428,24.5759165 9.04814773,24.8810334 C9.03369299,25.1867292 9.02617653,25.4686872 9.02386377,25.7269076 C9.02155101,25.9857069 9.02386377,26.2010834 9.03253661,26.3753532 C9.04005308,26.5478861 9.05739877,26.6405212 9.08573006,26.6509426 C9.11290497,26.6683117 9.1730367,26.6683117 9.26728161,26.6555744 C9.35979196,26.6416791 9.4580842,26.6219941 9.55926739,26.5970985 C9.66045058,26.5727818 9.75700825,26.5478861 9.84778403,26.5235694 C9.9385598,26.4980947 9.99695696,26.4807256 10.0247101,26.4697252 C10.0524632,26.4639355 10.0831072,26.4778308 10.1154858,26.5102531 C10.1484426,26.5444123 10.1744612,26.5826242 10.1941196,26.6266259 C10.2137781,26.6712065 10.2230291,26.7163661 10.2230291,26.7632627 C10.2230291,26.8084223 10.2062616,26.8414235 10.1733048,26.8576347 C9.96457834,26.9184264 9.75122635,26.9699547 9.53498342,27.0145354 C9.3181623,27.059116 9.12967247,27.0938542 8.97067032,27.1216447 C8.87700359,27.1378558 8.80068256,27.1135391 8.74401997,27.0469576 C8.68620101,26.9815341 8.65150963,26.8941097 8.64052403,26.7829476 C8.62953842,26.4639355 8.62491291,26.1356599 8.62780385,25.7969628 C8.6306948,25.4588448 8.63763308,25.1189898 8.64804049,24.7779768 C8.65902609,24.4363849 8.67290265,24.0965299 8.69024834,23.7589908 C8.70643765,23.4202937 8.72840885,23.094334 8.75616196,22.7811116" id="Fill-18" fill="#FEFEFE"></path>
                    <path d="M11.7718836,23.1118768 C11.8106223,23.0730858 11.8551429,23.0568747 11.9037108,23.0615064 C11.9528569,23.0672961 11.9979557,23.0858232 12.035538,23.1188244 C12.0736986,23.1524046 12.1014517,23.1911956 12.1187974,23.2346183 C12.1349867,23.2786199 12.1257356,23.3168319 12.093357,23.3498332 C11.9615298,23.6202118 11.8187169,23.8766953 11.6649185,24.1221783 C11.5116982,24.3665033 11.3746673,24.5888275 11.2572948,24.7862561 C11.1387659,24.9842636 11.0526156,25.1539016 10.9976876,25.2945912 C10.9421814,25.4347017 10.9444942,25.5342845 11.0057823,25.5944973 C11.0381609,25.6327092 11.1139037,25.6767109 11.2324326,25.7236074 C11.3503833,25.769925 11.4793196,25.8156636 11.6192415,25.8596652 C11.7597416,25.9030879 11.8933034,25.9441947 12.0193487,25.9824067 C12.1453941,26.0206187 12.2390608,26.0513041 12.2991925,26.0738839 C12.3269456,26.090095 12.340244,26.1202014 12.340244,26.1636241 C12.340244,26.2082048 12.3327275,26.2539433 12.31596,26.3002609 C12.2991925,26.3471574 12.2749086,26.3853694 12.2419518,26.4160548 C12.2095731,26.4467401 12.1760381,26.4531088 12.1430813,26.4368977 C12.0222397,26.4148968 11.8898343,26.3830535 11.7475996,26.3413677 C11.6042086,26.3002609 11.4631303,26.2562592 11.3232084,26.2105206 C11.1827083,26.1636241 11.0555066,26.1155697 10.9398686,26.0686732 C10.8242307,26.0235135 10.7363459,25.9824067 10.675636,25.9494055 C10.6155043,25.9065617 10.575031,25.8486648 10.5524816,25.7774516 C10.5310886,25.7045014 10.5212593,25.6321303 10.5235721,25.5574432 C10.526463,25.4839141 10.5368705,25.410385 10.5559507,25.335119 C10.5756092,25.260432 10.596424,25.1967453 10.6189734,25.1411643 C10.6623376,25.0311601 10.7380805,24.8771543 10.8444674,24.6785678 C10.9520106,24.4811392 11.0653358,24.2790789 11.1861774,24.0718079 C11.3075973,23.8668528 11.4232352,23.674056 11.5330912,23.4945755 C11.6423691,23.316253 11.7227374,23.1888797 11.7718836,23.1118768 M10.4536111,22.7233884 C10.4536111,22.673597 10.474426,22.6388588 10.5154774,22.616279 C10.5559507,22.5936992 10.6022059,22.5821198 10.6519302,22.5821198 C10.7010763,22.5821198 10.7450187,22.5936992 10.7831793,22.616279 C10.8213398,22.6388588 10.8415764,22.6672283 10.8415764,22.7077562 C10.8242307,23.1020343 10.8109324,23.4789433 10.7993686,23.8338515 C10.788383,24.1876018 10.7785537,24.5384572 10.7710373,24.8852598 C10.7623644,25.2326414 10.7542698,25.5834969 10.7461751,25.9384051 C10.7380805,26.2921553 10.7334549,26.6684854 10.7334549,27.0633425 C10.7282512,27.1073441 10.7045455,27.1415033 10.663494,27.1629252 C10.6224425,27.184926 10.5785001,27.1970844 10.5310886,27.1970844 C10.4842552,27.1970844 10.4426255,27.186084 10.4038868,27.1675569 C10.3645699,27.147872 10.3460679,27.1183446 10.3460679,27.0807115 C10.3460679,26.6789068 10.3506934,26.3002609 10.358788,25.9453527 C10.3674609,25.5910235 10.3749774,25.2419049 10.3836502,24.8979972 C10.3917449,24.5535104 10.4015741,24.2043919 10.4119815,23.8500627 C10.4235453,23.4945755 10.4362655,23.1188244 10.4536111,22.7233884" id="Fill-20" fill="#FEFEFE"></path>
                </g>
                <g id="Page-1" transform="translate(172.588793, 304.505066)">
                    <g id="Group-6" transform="translate(0.000000, 17.239680)">
                        <mask id="mask-4" fill="white">
                            <use xlink:href="#path-3"></use>
                        </mask>
                        <g id="Clip-5"></g>
                        <polygon id="Fill-4" fill="#FEFEFE" mask="url(#mask-4)" points="0 2.61780984 5.58531207 0.954927204 16.127874 0.128241707 11.1710392 2.89488802"></polygon>
                    </g>
                    <path d="M0.634828521,17.0248413 C0.543089095,17.1216119 0.587505921,18.7104692 0.582524595,18.7749829 C0.557202853,19.1111987 1.4941073,19.0561966 1.4941073,19.0561966 L9.85982964,19.3051534 C10.6767672,19.359742 11.329736,18.8485947 11.329736,18.8485947 L15.3563081,16.7477632 C16.0192396,16.2237959 15.5414474,14.5671165 15.5414474,14.5671165 L10.3293196,17.3560945 L0.634828521,17.0248413 Z" id="Fill-7" fill="#DD8F46"></path>
                    <path d="M0.772271615,16.8212923 L6.73491915,14.2452923 C6.73491915,14.2452923 7.7627328,13.6969256 10.02467,13.7986588 L13.4435203,13.9400927 C13.4435203,13.9400927 16.1587582,13.7601987 15.4078233,15.0372396 L11.3808361,17.1372441 C11.3808361,17.1372441 10.7282824,17.6475642 9.91134486,17.5933892 L1.54520741,17.3440189 C1.54520741,17.3440189 0.208136416,17.4230068 0.772271615,16.8212923" id="Fill-9" fill="#EAD2AC"></path>
                    <path d="M9.05297932,17.5022016 C8.60133908,17.4223865 8.13516996,17.3413308 7.69805858,17.2003104 C7.3477053,17.0861707 6.95168986,16.9294355 6.71590709,16.6316798 C6.48676608,16.340541 6.46725588,15.9997761 6.5743544,15.6532216 C6.95874674,14.4022343 8.36223541,14.0684999 9.5847359,13.7868726 C7.62873512,13.76909 6.73500217,14.2454991 6.73500217,14.2454991 L0.772354637,16.821499 C0.207804327,17.4232136 1.54529043,17.3438121 1.54529043,17.3438121 L9.63413405,17.585325 C9.43986233,17.5625798 9.24600572,17.5352855 9.05297932,17.5022016" id="Fill-11" fill="#EAD2AC"></path>
                    <path d="M13.8040853,13.9320699 C14.5525296,13.975079 15.5836641,14.1793725 15.0847012,15.027149 L11.057299,17.1283941 C11.057299,17.1283941 10.4707478,17.5861935 9.7131711,17.5878477 L9.91117882,17.5936374 C10.7285314,17.6473988 11.3806701,17.1370787 11.3806701,17.1370787 L15.4076572,15.0370742 C15.9846609,14.0557212 14.5159998,13.9353783 13.8040853,13.9320699" id="Fill-13" fill="#DD8F46"></path>
                    <path d="M14.0087763,13.9579167 C14.0087763,13.9579167 14.1005157,13.952127 14.2445591,13.9496457 C13.9282448,13.9248328 13.6438941,13.9322767 13.515625,13.9368257 L14.0087763,13.9579167 Z" id="Fill-15" fill="#DD8F46"></path>
                    <path d="M9.91117882,17.5934719 C9.95352009,17.5959532 9.99503114,17.5976074 10.0369573,17.5976074 L9.91117882,17.5934719 Z" id="Fill-17" fill="#DD8F46"></path>
                    <path d="M1.33777668,16.8382478 L7.30042421,14.2618343 C7.30042421,14.2618343 8.19249672,13.7858388 10.142686,13.8036214 L10.0247946,13.7986588 C7.76285733,13.6969256 6.73504368,14.2452923 6.73504368,14.2452923 L0.772396148,16.8212923 C0.207845838,17.4230068 1.54533194,17.3440189 1.54533194,17.3440189 L1.65077001,17.3469137 C1.32822914,17.3092807 1.00817892,17.1897649 1.33777668,16.8382478" id="Fill-19" fill="#DD8F46"></path>
                    <path d="M12.6377908,14.3399951 C12.6357152,14.4173289 12.5252958,14.4772936 12.3908,14.4739852 C12.2567193,14.4698497 12.150451,14.4028547 12.1525266,14.3255209 C12.1550172,14.2477736 12.2658517,14.1882225 12.3995173,14.1915309 C12.5331829,14.1960799 12.6402814,14.2626614 12.6377908,14.3399951" id="Fill-21" fill="#EAD2AC"></path>
                    <path d="M14.1012214,14.6646729 C14.0987307,14.7420066 13.9887264,14.8027984 13.8542306,14.7986629 C13.7205651,14.7953545 13.6138816,14.7283595 13.6167874,14.6510257 C13.618863,14.5732784 13.7292824,14.5129002 13.862948,14.5170357 C13.9970287,14.5215847 14.1037121,14.5873391 14.1012214,14.6646729" id="Fill-23" fill="#EAD2AC"></path>
                    <path d="M13.3982732,14.6436645 C13.3957826,14.7218254 13.2857783,14.7817901 13.1512825,14.7776546 C13.0176169,14.7735191 12.9113486,14.7073512 12.913009,14.6300174 C12.9159148,14.5522701 13.0259191,14.4918919 13.1599998,14.4968545 C13.2940805,14.5005764 13.4007639,14.5663308 13.3982732,14.6436645" id="Fill-25" fill="#EAD2AC"></path>
                    <path d="M11.8768932,14.4578981 C11.8752327,14.5137273 11.7967768,14.5563229 11.7008863,14.5530145 C11.6054109,14.5509467 11.5294457,14.502975 11.5315212,14.4483865 C11.5327666,14.3917302 11.6112224,14.3495481 11.7075281,14.3528565 C11.8025884,14.3553378 11.8789687,14.4020689 11.8768932,14.4578981" id="Fill-27" fill="#EAD2AC"></path>
                    <path d="M12.3228049,14.7171937 C12.3211445,14.7763312 12.2385375,14.8214081 12.1380807,14.8172726 C12.037624,14.8139642 11.9570925,14.7647518 11.9595832,14.7068549 C11.9608285,14.6493715 12.0438506,14.6042946 12.1443074,14.6063624 C12.2451792,14.6096708 12.3248805,14.6588832 12.3228049,14.7171937" id="Fill-29" fill="#EAD2AC"></path>
                    <path d="M0.634828521,15.083888 C0.543089095,15.1814857 0.587505921,16.7695159 0.582524595,16.8348567 C0.557202853,17.1694183 1.4941073,17.1144162 1.4941073,17.1144162 L9.85982964,17.3642001 C10.6767672,17.4183751 11.329736,16.9076414 11.329736,16.9076414 L15.3563081,14.8076369 C16.0192396,14.2820155 15.5414474,12.6261632 15.5414474,12.6261632 L10.3293196,15.4143141 L0.634828521,15.083888 Z" id="Fill-35" fill="#DD8F46"></path>
                    <path d="M0.772271615,14.8803389 L6.73491915,12.3039254 C6.73491915,12.3039254 7.7627328,11.7559723 10.02467,11.8577055 L13.4435203,11.9999665 C13.4435203,11.9999665 16.1587582,11.8200725 15.4078233,13.0971134 L11.3808361,15.1971179 C11.3808361,15.1971179 10.7282824,15.707438 9.91134486,15.6524359 L1.54520741,15.4038926 C1.54520741,15.4038926 0.208136416,15.4828806 0.772271615,14.8803389" id="Fill-37" fill="#EAD2AC"></path>
                    <path d="M9.05297932,15.5604211 C8.60133908,15.4822603 8.13516996,15.4003775 7.69805858,15.2589435 C7.3477053,15.1460445 6.95168986,14.987655 6.71590709,14.6898994 C6.48676608,14.4004147 6.46725588,14.0588228 6.5743544,13.7122683 C6.95874674,12.461281 8.36223541,12.1275465 9.5847359,11.8467464 C7.62873512,11.8273096 6.73500217,12.3037186 6.73500217,12.3037186 L0.772354637,14.8801322 C0.207804327,15.4830874 1.54529043,15.4036859 1.54529043,15.4036859 L9.63413405,15.6443717 C9.43986233,15.6224536 9.24600572,15.5943322 9.05297932,15.5604211" id="Fill-39" fill="#EAD2AC"></path>
                    <path d="M13.8040853,11.9919437 C14.5525296,12.0332986 15.5836641,12.2384192 15.0847012,13.0861957 L11.057299,15.1874408 C11.057299,15.1874408 10.4707478,15.6452401 9.7131711,15.6468943 L9.91117882,15.652684 C10.7285314,15.7072726 11.3806701,15.1969525 11.3806701,15.1969525 L15.4076572,13.096948 C15.9846609,12.115595 14.5159998,11.995252 13.8040853,11.9919437" id="Fill-41" fill="#DD8F46"></path>
                    <path d="M14.0087763,12.0170048 C14.0087763,12.0170048 14.1005157,12.010388 14.2445591,12.0087338 C13.9282448,11.9839208 13.6438941,11.9913647 13.515625,11.9967408 L14.0087763,12.0170048 Z" id="Fill-43" fill="#DD8F46"></path>
                    <path d="M9.91117882,15.6525186 C9.95352009,15.655827 9.99503114,15.6566541 10.0369573,15.6566541 L9.91117882,15.6525186 Z" id="Fill-45" fill="#DD8F46"></path>
                    <path d="M1.33777668,14.8981216 L7.30042421,12.321708 C7.30042421,12.321708 8.19249672,11.8457125 10.142686,11.8626681 L10.0247946,11.8577055 C7.76285733,11.7559723 6.73504368,12.3039254 6.73504368,12.3039254 L0.772396148,14.8803389 C0.207845838,15.4828806 1.54533194,15.4038926 1.54533194,15.4038926 L1.65077001,15.4067875 C1.32822914,15.3683274 1.00817892,15.2496387 1.33777668,14.8981216" id="Fill-47" fill="#DD8F46"></path>
                    <path d="M12.6377908,12.3990418 C12.6357152,12.4772027 12.5252958,12.5363402 12.3908,12.5322047 C12.2567193,12.5288964 12.150451,12.4619013 12.1525266,12.3845676 C12.1550172,12.3068203 12.2658517,12.2472691 12.3995173,12.2514046 C12.5331829,12.2551266 12.6402814,12.321708 12.6377908,12.3990418" id="Fill-49" fill="#EAD2AC"></path>
                    <path d="M14.1012214,12.7245466 C14.0987307,12.8018804 13.9887264,12.8618451 13.8542306,12.8577096 C13.7205651,12.8535741 13.6138816,12.7874062 13.6167874,12.7100724 C13.618863,12.6323251 13.7292824,12.572774 13.862948,12.5769095 C13.9970287,12.5806314 14.1037121,12.6472129 14.1012214,12.7245466" id="Fill-51" fill="#EAD2AC"></path>
                    <path d="M13.3982732,12.7035383 C13.3957826,12.7808721 13.2857783,12.8416639 13.1512825,12.8367013 C13.0176169,12.8325658 12.9113486,12.7672249 12.913009,12.6890641 C12.9159148,12.6104897 13.0259191,12.5517656 13.1599998,12.5559011 C13.2940805,12.558796 13.4007639,12.6262046 13.3982732,12.7035383" id="Fill-53" fill="#EAD2AC"></path>
                    <path d="M11.8768932,12.5177719 C11.8752327,12.572774 11.7967768,12.6153696 11.7008863,12.6124747 C11.6054109,12.6091663 11.5294457,12.5620217 11.5315212,12.5074331 C11.5327666,12.4516039 11.6112224,12.4085948 11.7075281,12.4119032 C11.8025884,12.4152116 11.8789687,12.4611156 11.8768932,12.5177719" id="Fill-55" fill="#EAD2AC"></path>
                    <path d="M12.3228049,12.7770674 C12.3211445,12.8353779 12.2385375,12.8796277 12.1380807,12.8771464 C12.037624,12.873838 11.9570925,12.8246256 11.9595832,12.7667287 C11.9608285,12.7075911 12.0438506,12.6625142 12.1443074,12.6662361 C12.2451792,12.6695445 12.3248805,12.7187569 12.3228049,12.7770674" id="Fill-57" fill="#EAD2AC"></path>
                    <path d="M0.634828521,13.1429347 C0.543089095,13.2405324 0.587505921,14.8293896 0.582524595,14.8939034 C0.557202853,15.229292 1.4941073,15.1742899 1.4941073,15.1742899 L9.85982964,15.4232468 C10.6767672,15.4778353 11.329736,14.9666881 11.329736,14.9666881 L15.3563081,12.8675107 C16.0192396,12.3418893 15.5414474,10.6852099 15.5414474,10.6852099 L10.3293196,13.4741879 L0.634828521,13.1429347 Z" id="Fill-63" fill="#DD8F46"></path>
                    <path d="M0.772271615,12.9393856 L6.73491915,10.3633856 C6.73491915,10.3633856 7.7627328,9.81501896 10.02467,9.91757924 L13.4435203,10.0590132 C13.4435203,10.0590132 16.1587582,9.87829204 15.4078233,11.1561601 L11.3808361,13.2561645 C11.3808361,13.2561645 10.7282824,13.7664847 9.91134486,13.7114826 L1.54520741,13.4629393 C1.54520741,13.4629393 0.208136416,13.5411002 0.772271615,12.9393856" id="Fill-65" fill="#EAD2AC"></path>
                    <path d="M9.05297932,13.6202949 C8.60133908,13.5404798 8.13516996,13.4594241 7.69805858,13.3184037 C7.3477053,13.2042641 6.95168986,13.0475288 6.71590709,12.7497732 C6.48676608,12.4594614 6.46725588,12.1186966 6.5743544,11.7721421 C6.95874674,10.5211548 8.36223541,10.1865932 9.5847359,9.90496598 C7.62873512,9.88718335 6.73500217,10.3635924 6.73500217,10.3635924 L0.772354637,12.9395924 C0.207804327,13.5413069 1.54529043,13.4627325 1.54529043,13.4627325 L9.63413405,13.7034184 C9.43986233,13.6815002 9.24600572,13.654206 9.05297932,13.6202949" id="Fill-67" fill="#EAD2AC"></path>
                    <path d="M13.8040853,10.0502046 C14.5525296,10.0932137 15.5836641,10.2975072 15.0847012,11.1461108 L11.057299,13.2465288 C11.057299,13.2465288 10.4707478,13.7051553 9.7131711,13.7059824 L9.91117882,13.7117721 C10.7285314,13.7663606 11.3806701,13.2560405 11.3806701,13.2560405 L15.4076572,11.156036 C15.9846609,10.174683 14.5159998,10.053513 13.8040853,10.0502046" id="Fill-69" fill="#DD8F46"></path>
                    <path d="M14.0087763,10.0760514 C14.0087763,10.0760514 14.1005157,10.0702617 14.2445591,10.0677804 C13.9282448,10.0437946 13.6438941,10.0504113 13.515625,10.0549604 L14.0087763,10.0760514 Z" id="Fill-71" fill="#DD8F46"></path>
                    <path d="M9.91117882,13.7115653 C9.95352009,13.7148737 9.99503114,13.7148737 10.0369573,13.7148737 L9.91117882,13.7115653 Z" id="Fill-73" fill="#DD8F46"></path>
                    <path d="M1.33777668,12.9563825 L7.30042421,10.379969 C7.30042421,10.379969 8.19249672,9.90480056 10.142686,9.92175609 L10.0247946,9.9176206 C7.76285733,9.81506032 6.73504368,10.363427 6.73504368,10.363427 L0.772396148,12.939427 C0.207845838,13.5411415 1.54533194,13.4629807 1.54533194,13.4629807 L1.65077001,13.4650484 C1.32822914,13.4282425 1.00817892,13.3087267 1.33777668,12.9563825" id="Fill-75" fill="#DD8F46"></path>
                    <path d="M12.6377908,10.4580885 C12.6357152,10.5362493 12.5252958,10.596214 12.3908,10.5920785 C12.2567193,10.587943 12.150451,10.5217751 12.1525266,10.4444413 C12.1550172,10.366694 12.2658517,10.3063158 12.3995173,10.3112784 C12.5331829,10.3150003 12.6402814,10.3807547 12.6377908,10.4580885" id="Fill-77" fill="#EAD2AC"></path>
                    <path d="M14.1012214,10.7836347 C14.0987307,10.8617955 13.9887264,10.9209331 13.8542306,10.9167976 C13.7205651,10.9134892 13.6138816,10.8464942 13.6167874,10.7691604 C13.618863,10.6914131 13.7292824,10.631862 13.862948,10.6368246 C13.9970287,10.6397194 14.1037121,10.7054738 14.1012214,10.7836347" id="Fill-79" fill="#EAD2AC"></path>
                    <path d="M13.3982732,10.7626263 C13.3957826,10.8407872 13.2857783,10.8999248 13.1512825,10.8966164 C13.0176169,10.8924809 12.9113486,10.8254859 12.913009,10.7489792 C12.9159148,10.6704048 13.0259191,10.6100266 13.1599998,10.6149892 C13.2940805,10.6187111 13.4007639,10.6844655 13.3982732,10.7626263" id="Fill-81" fill="#EAD2AC"></path>
                    <path d="M11.8768932,10.5760328 C11.8752327,10.631862 11.7967768,10.6744576 11.7008863,10.6711492 C11.6054109,10.6690814 11.5294457,10.6219368 11.5315212,10.5665212 C11.5327666,10.5115191 11.6112224,10.4685099 11.7075281,10.4709912 C11.8025884,10.4742996 11.8789687,10.5210307 11.8768932,10.5760328" id="Fill-83" fill="#EAD2AC"></path>
                    <path d="M12.3228049,10.8369412 C12.3211445,10.8944246 12.2385375,10.9395015 12.1380807,10.935366 C12.037624,10.9328847 11.9570925,10.8828452 11.9595832,10.8257754 C11.9608285,10.7674649 12.0438506,10.722388 12.1443074,10.7252828 C12.2451792,10.7277641 12.3248805,10.7778036 12.3228049,10.8369412" id="Fill-85" fill="#EAD2AC"></path>
                    <path d="M0.634828521,11.2020227 C0.543089095,11.3004475 0.587505921,12.8876506 0.582524595,12.9538185 C0.557202853,13.2883801 1.4941073,13.2325509 1.4941073,13.2325509 L9.85982964,13.4823348 C10.6767672,13.5369233 11.329736,13.0266032 11.329736,13.0266032 L15.3563081,10.9265987 C16.0192396,10.4009773 15.5414474,8.74512499 15.5414474,8.74512499 L10.3293196,11.5332759 L0.634828521,11.2020227 Z" id="Fill-91" fill="#DD8F46"></path>
                    <path d="M0.772271615,10.9992594 L6.73491915,8.42284585 C6.73491915,8.42284585 7.7627328,7.87406563 10.02467,7.97579881 L13.4435203,8.11888695 C13.4435203,8.11888695 16.1587582,7.93816581 15.4078233,9.21520673 L11.3808361,11.3160383 C11.3808361,11.3160383 10.7282824,11.8255313 9.91134486,11.7713563 L1.54520741,11.521986 C1.54520741,11.521986 0.208136416,11.6009739 0.772271615,10.9992594" id="Fill-93" fill="#EAD2AC"></path>
                    <path d="M9.05297932,11.6793829 C8.60133908,11.600395 8.13516996,11.5185122 7.69805858,11.3774918 C7.3477053,11.2641792 6.95168986,11.1066168 6.71590709,10.8088612 C6.48676608,10.5185494 6.46725588,10.1769575 6.5743544,9.8312301 C6.95874674,8.5794157 8.36223541,8.24568123 9.5847359,7.9648811 C7.62873512,7.94627138 6.73500217,8.42268043 6.73500217,8.42268043 L0.772354637,10.999094 C0.207804327,11.6012221 1.54529043,11.5218206 1.54529043,11.5218206 L9.63413405,11.7625064 C9.43986233,11.7414153 9.24600572,11.7124669 9.05297932,11.6793829" id="Fill-95" fill="#EAD2AC"></path>
                    <path d="M13.8040853,8.11007834 C14.5525296,8.15226039 15.5836641,8.35738096 15.0847012,9.20515748 L11.057299,11.3055755 C11.057299,11.3055755 10.4707478,11.765029 9.7131711,11.7658561 L9.91117882,11.7716458 C10.7285314,11.8254073 11.3806701,11.3159142 11.3806701,11.3159142 L15.4076572,9.21508267 C15.9846609,8.23455675 14.5159998,8.11338674 13.8040853,8.11007834" id="Fill-97" fill="#DD8F46"></path>
                    <path d="M14.0087763,8.13592519 C14.0087763,8.13592519 14.1005157,8.12930839 14.2445591,8.12724065 C13.9282448,8.10284123 13.6438941,8.11028512 13.515625,8.11483416 L14.0087763,8.13592519 Z" id="Fill-99" fill="#DD8F46"></path>
                    <path d="M9.91117882,11.771439 C9.95352009,11.7739203 9.99503114,11.7747474 10.0369573,11.7747474 L9.91117882,11.771439 Z" id="Fill-101" fill="#DD8F46"></path>
                    <path d="M1.33777668,11.0162563 L7.30042421,8.43984273 C7.30042421,8.43984273 8.19249672,7.96467433 10.142686,7.98162986 L10.0247946,7.97584017 C7.76285733,7.87410698 6.73504368,8.4228872 6.73504368,8.4228872 L0.772396148,10.9993007 C0.207845838,11.6010153 1.54533194,11.5220273 1.54533194,11.5220273 L1.65077001,11.5249222 C1.32822914,11.4864621 1.00817892,11.3677734 1.33777668,11.0162563" id="Fill-103" fill="#DD8F46"></path>
                    <path d="M12.6377908,8.51796224 C12.6357152,8.59488245 12.5252958,8.65526068 12.3908,8.65112518 C12.2567193,8.64698969 12.150451,8.58082176 12.1525266,8.5026609 C12.1550172,8.42491359 12.2658517,8.36618956 12.3995173,8.36949796 C12.5331829,8.3732199 12.6402814,8.43980138 12.6377908,8.51796224" id="Fill-105" fill="#EAD2AC"></path>
                    <path d="M14.1012214,8.84268132 C14.0987307,8.92001508 13.9887264,8.97997976 13.8542306,8.97584427 C13.7205651,8.97253587 13.6138816,8.90554085 13.6167874,8.82820709 C13.618863,8.75045978 13.7292824,8.69090865 13.862948,8.69504414 C13.9970287,8.69876609 14.1037121,8.76534756 14.1012214,8.84268132" id="Fill-107" fill="#EAD2AC"></path>
                    <path d="M13.3982732,8.82167301 C13.3957826,8.89900677 13.2857783,8.95979855 13.1512825,8.95483595 C13.0176169,8.95070046 12.9113486,8.88535963 12.913009,8.80802587 C12.9159148,8.72945146 13.0259191,8.66990033 13.1599998,8.67403583 C13.2940805,8.67775777 13.4007639,8.74433925 13.3982732,8.82167301" id="Fill-109" fill="#EAD2AC"></path>
                    <path d="M11.8768932,8.63590656 C11.8752327,8.69173575 11.7967768,8.73433135 11.7008863,8.7306094 C11.6054109,8.7281281 11.5294457,8.68015636 11.5315212,8.62556782 C11.5327666,8.56973864 11.6112224,8.52672949 11.7075281,8.53003788 C11.8025884,8.53334628 11.8789687,8.58007737 11.8768932,8.63590656" id="Fill-111" fill="#EAD2AC"></path>
                    <path d="M12.3228049,8.89520211 C12.3211445,8.95351259 12.2385375,8.99858949 12.1380807,8.9952811 C12.037624,8.9927998 11.9570925,8.94276031 11.9595832,8.88569047 C11.9608285,8.82655289 12.0438506,8.78147599 12.1443074,8.78437084 C12.2451792,8.78767924 12.3248805,8.83771873 12.3228049,8.89520211" id="Fill-113" fill="#EAD2AC"></path>
                    <path d="M0.634828521,9.26189647 C0.543089095,9.35949416 0.587505921,10.9475243 0.582524595,11.0136923 C0.557202853,11.3482538 1.4941073,11.2924246 1.4941073,11.2924246 L9.85982964,11.5422085 C10.6767672,11.5963835 11.329736,11.0856499 11.329736,11.0856499 L15.3563081,8.98564539 C16.0192396,8.46085105 15.5414474,6.80499876 15.5414474,6.80499876 L10.3293196,9.59232254 L0.634828521,9.26189647 Z" id="Fill-119" fill="#DD8F46"></path>
                    <path d="M0.772271615,9.05913314 L6.73491915,6.48189251 C6.73491915,6.48189251 7.7627328,5.9339394 10.02467,6.03567258 L13.4435203,6.17793362 C13.4435203,6.17793362 16.1587582,5.99721247 15.4078233,7.2742534 L11.3808361,9.37425788 C11.3808361,9.37425788 10.7282824,9.88540509 9.91134486,9.830403 L1.54520741,9.58103264 C1.54520741,9.58103264 0.208136416,9.6608477 0.772271615,9.05913314" id="Fill-121" fill="#EAD2AC"></path>
                    <path d="M9.05297932,9.73842959 C8.60133908,9.65944163 8.13516996,9.57755882 7.69805858,9.43695199 C7.3477053,9.32322587 6.95168986,9.1664906 6.71590709,8.86832139 C6.48676608,8.57759608 6.46725588,8.23683127 6.5743544,7.89110387 C6.95874674,6.63928946 8.36223541,6.305555 9.5847359,6.02392777 C7.62873512,6.00614514 6.73500217,6.48172709 6.73500217,6.48172709 L0.772354637,9.05896772 C0.207804327,9.66109583 1.54529043,9.58086722 1.54529043,9.58086722 L9.63413405,9.82238014 C9.43986233,9.79963492 9.24600572,9.77234065 9.05297932,9.73842959" id="Fill-123" fill="#EAD2AC"></path>
                    <path d="M13.8040853,6.16916637 C14.5525296,6.21134842 15.5836641,6.41646898 15.0847012,7.2642455 L11.057299,9.36549063 C11.057299,9.36549063 10.4707478,9.82328995 9.7131711,9.82411705 L9.91117882,9.83073384 C10.7285314,9.88532238 11.3806701,9.37417517 11.3806701,9.37417517 L15.4076572,7.27417069 C15.9846609,6.29281767 14.5159998,6.17247476 13.8040853,6.16916637" id="Fill-125" fill="#DD8F46"></path>
                    <path d="M14.0087763,6.19418611 C14.0087763,6.19418611 14.1005157,6.18839642 14.2445591,6.18674222 C13.9282448,6.16192925 13.6438941,6.16854604 13.515625,6.17392218 L14.0087763,6.19418611 Z" id="Fill-127" fill="#DD8F46"></path>
                    <path d="M9.91117882,9.83052707 C9.95352009,9.83300836 9.99503114,9.83466256 10.0369573,9.83466256 L9.91117882,9.83052707 Z" id="Fill-129" fill="#DD8F46"></path>
                    <path d="M1.33777668,9.07530293 L7.30042421,6.4988894 C7.30042421,6.4988894 8.19249672,6.0228939 10.142686,6.04067653 L10.0247946,6.03571393 C7.76285733,5.93398075 6.73504368,6.48193387 6.73504368,6.48193387 L0.772396148,9.0591745 C0.207845838,9.66088905 1.54533194,9.581074 1.54533194,9.581074 L1.65077001,9.58479594 C1.32822914,9.54633584 1.00817892,9.42682002 1.33777668,9.07530293" id="Fill-131" fill="#DD8F46"></path>
                    <path d="M12.6377908,6.57622316 C12.6357152,6.65438402 12.5252958,6.7143487 12.3908,6.71021321 C12.2567193,6.70607771 12.150451,6.63990979 12.1525266,6.56257603 C12.1550172,6.48482872 12.2658517,6.42445049 12.3995173,6.42941308 C12.5331829,6.43313503 12.6402814,6.4988894 12.6377908,6.57622316" id="Fill-133" fill="#EAD2AC"></path>
                    <path d="M14.1012214,6.90172799 C14.0987307,6.97988885 13.9887264,7.03985353 13.8542306,7.03571804 C13.7205651,7.03158254 13.6138816,6.96541462 13.6167874,6.88808086 C13.618863,6.81033355 13.7292824,6.74995532 13.862948,6.75491791 C13.9970287,6.75863986 14.1037121,6.82439423 14.1012214,6.90172799" id="Fill-135" fill="#EAD2AC"></path>
                    <path d="M13.3982732,6.88154677 C13.3957826,6.95888053 13.2857783,7.01884522 13.1512825,7.01470972 C13.0176169,7.01057422 12.9113486,6.9444063 12.913009,6.86707254 C12.9159148,6.78932523 13.0259191,6.7297741 13.1599998,6.73390959 C13.2940805,6.73680444 13.4007639,6.80421301 13.3982732,6.88154677" id="Fill-137" fill="#EAD2AC"></path>
                    <path d="M11.8768932,6.69495323 C11.8752327,6.74995532 11.7967768,6.79255092 11.7008863,6.79006962 C11.6054109,6.78800187 11.5294457,6.74003013 11.5315212,6.68461449 C11.5327666,6.6296124 11.6112224,6.58660325 11.7075281,6.58908455 C11.8025884,6.59239295 11.8789687,6.63912404 11.8768932,6.69495323" id="Fill-139" fill="#EAD2AC"></path>
                    <path d="M12.3228049,6.95503452 C12.3211445,7.01334501 12.2385375,7.0584219 12.1380807,7.05511351 C12.037624,7.05097801 11.9570925,7.00176562 11.9595832,6.94386869 C11.9608285,6.8855582 12.0438506,6.84048131 12.1443074,6.84337615 C12.2451792,6.84668455 12.3248805,6.89589694 12.3228049,6.95503452" id="Fill-141" fill="#EAD2AC"></path>
                    <path d="M0.634828521,7.3201574 C0.543089095,7.41858218 0.587505921,9.00661235 0.582524595,9.07195318 C0.557202853,9.40651474 1.4941073,9.35151266 1.4941073,9.35151266 L9.85982964,9.60129657 C10.6767672,9.65505801 11.329736,9.14473789 11.329736,9.14473789 L15.3563081,7.04473342 C16.0192396,6.51911197 15.5414474,4.86325968 15.5414474,4.86325968 L10.3293196,7.65141057 L0.634828521,7.3201574 Z" id="Fill-147" fill="#DD8F46"></path>
                    <path d="M0.772271615,7.11739407 L6.73491915,4.54098054 C6.73491915,4.54098054 7.7627328,3.99220032 10.02467,4.0947606 L13.4435203,4.23702164 C13.4435203,4.23702164 16.1587582,4.0563005 15.4078233,5.33416852 L11.3808361,7.434173 C11.3808361,7.434173 10.7282824,7.94449311 9.91134486,7.88949103 L1.54520741,7.64012066 C1.54520741,7.64012066 0.208136416,7.71910862 0.772271615,7.11739407" id="Fill-149" fill="#EAD2AC"></path>
                    <path d="M9.05297932,7.79751761 C8.60133908,7.71852965 8.13516996,7.63747395 7.69805858,7.49604001 C7.3477053,7.38231389 6.95168986,7.22475152 6.71590709,6.92699587 C6.48676608,6.6375112 6.46725588,6.29591929 6.5743544,5.94936479 C6.95874674,4.69920459 8.36223541,4.36464302 9.5847359,4.0830158 C7.62873512,4.06440607 6.73500217,4.54081512 6.73500217,4.54081512 L0.772354637,7.11722865 C0.207804327,7.71935675 1.54529043,7.63995524 1.54529043,7.63995524 L9.63413405,7.88229526 C9.43986233,7.85955004 9.24600572,7.83225577 9.05297932,7.79751761" id="Fill-151" fill="#EAD2AC"></path>
                    <path d="M13.8040853,4.22821303 C14.5525296,4.27039509 15.5836641,4.47551565 15.0847012,5.32329217 L11.057299,7.4245373 C11.057299,7.4245373 10.4707478,7.88316372 9.7131711,7.88399082 L9.91117882,7.88978051 C10.7285314,7.94436905 11.3806701,7.43404894 11.3806701,7.43404894 L15.4076572,5.33404446 C15.9846609,4.35269144 14.5159998,4.23234853 13.8040853,4.22821303" id="Fill-153" fill="#DD8F46"></path>
                    <path d="M14.0087763,4.25405988 C14.0087763,4.25405988 14.1005157,4.24827019 14.2445591,4.24578889 C13.9282448,4.22097592 13.6438941,4.22841981 13.515625,4.23379595 L14.0087763,4.25405988 Z" id="Fill-155" fill="#DD8F46"></path>
                    <path d="M9.91117882,7.88957374 C9.95352009,7.89288213 9.99503114,7.89370923 10.0369573,7.89370923 L9.91117882,7.88957374 Z" id="Fill-157" fill="#DD8F46"></path>
                    <path d="M1.33777668,7.1351767 L7.30042421,4.55793607 C7.30042421,4.55793607 8.19249672,4.08276767 10.142686,4.1005503 L10.0247946,4.0947606 C7.76285733,3.99220032 6.73504368,4.54098054 6.73504368,4.54098054 L0.772396148,7.11739407 C0.207845838,7.71910862 1.54533194,7.64012066 1.54533194,7.64012066 L1.65077001,7.64342906 C1.32822914,7.6053825 1.00817892,7.48669379 1.33777668,7.1351767" id="Fill-159" fill="#DD8F46"></path>
                    <path d="M12.6377908,4.63609693 C12.6357152,4.71343069 12.5252958,4.77422247 12.3908,4.76925987 C12.2567193,4.76512438 12.150451,4.69978355 12.1525266,4.6216227 C12.1550172,4.54387538 12.2658517,4.48432425 12.3995173,4.48845975 C12.5331829,4.49218169 12.6402814,4.55876317 12.6377908,4.63609693" id="Fill-161" fill="#EAD2AC"></path>
                    <path d="M14.1012214,4.96160176 C14.0987307,5.03893552 13.9887264,5.0997273 13.8542306,5.0947647 C13.7205651,5.09062921 13.6138816,5.02528838 13.6167874,4.94712752 C13.618863,4.86855312 13.7292824,4.80982908 13.862948,4.81313748 C13.9970287,4.81685942 14.1037121,4.884268 14.1012214,4.96160176" id="Fill-163" fill="#EAD2AC"></path>
                    <path d="M13.3982732,4.9406348 C13.3957826,5.01796856 13.2857783,5.07793324 13.1512825,5.07297064 C13.0176169,5.06966225 12.9113486,5.00349432 12.913009,4.92616056 C12.9159148,4.84758615 13.0259191,4.78886212 13.1599998,4.79217052 C13.2940805,4.79589246 13.4007639,4.86330104 13.3982732,4.9406348" id="Fill-165" fill="#EAD2AC"></path>
                    <path d="M11.8768932,4.754827 C11.8752327,4.80982908 11.7967768,4.85242468 11.7008863,4.84994339 C11.6054109,4.84622144 11.5294457,4.79990389 11.5315212,4.74366116 C11.5327666,4.68865907 11.6112224,4.64564992 11.7075281,4.64895832 C11.8025884,4.65226671 11.8789687,4.69899781 11.8768932,4.754827" id="Fill-167" fill="#EAD2AC"></path>
                    <path d="M12.3228049,5.01412255 C12.3211445,5.07243303 12.2385375,5.11668283 12.1380807,5.11420153 C12.037624,5.11089314 11.9570925,5.06168074 11.9595832,5.00378381 C11.9608285,4.94464623 12.0438506,4.90039643 12.1443074,4.90329128 C12.2451792,4.90659967 12.3248805,4.95581206 12.3228049,5.01412255" id="Fill-169" fill="#EAD2AC"></path>
                    <path d="M0.634828521,5.38003117 C0.543089095,5.47845595 0.587505921,7.06648612 0.582524595,7.13182695 C0.557202853,7.46638851 1.4941073,7.41055932 1.4941073,7.41055932 L9.85982964,7.66034324 C10.6767672,7.71451822 11.329736,7.20461166 11.329736,7.20461166 L15.3563081,5.10378008 C16.0192396,4.57898574 15.5414474,2.92313345 15.5414474,2.92313345 L10.3293196,5.71128433 L0.634828521,5.38003117 Z" id="Fill-175" fill="#DD8F46"></path>
                    <path d="M0.772271615,5.17726783 L6.73491915,2.60085431 C6.73491915,2.60085431 7.7627328,2.05207409 10.02467,2.15380727 L13.4435203,2.29689541 C13.4435203,2.29689541 16.1587582,2.11534717 15.4078233,3.39238809 L11.3808361,5.49321967 C11.3808361,5.49321967 10.7282824,6.00353978 9.91134486,5.94853769 L1.54520741,5.69916733 C1.54520741,5.69916733 0.208136416,5.77898239 0.772271615,5.17726783" id="Fill-177" fill="#EAD2AC"></path>
                    <path d="M9.05297932,5.85735002 C8.60133908,5.77836207 8.13516996,5.69647926 7.69805858,5.55545887 C7.3477053,5.4413192 6.95168986,5.28458394 6.71590709,4.98682828 C6.48676608,4.69568941 6.46725588,4.35575171 6.5743544,4.00919721 C6.95874674,2.7582099 8.36223541,2.42364833 9.5847359,2.14202111 C7.62873512,2.12423848 6.73500217,2.60064753 6.73500217,2.60064753 L0.772354637,5.17706106 C0.207804327,5.77918917 1.54529043,5.69896056 1.54529043,5.69896056 L9.63413405,5.94047348 C9.43986233,5.91855535 9.24600572,5.89043399 9.05297932,5.85735002" id="Fill-179" fill="#EAD2AC"></path>
                    <path d="M13.8040853,2.2872597 C14.5525296,2.32944175 15.5836641,2.53456232 15.0847012,3.38316594 L11.057299,5.48358397 C11.057299,5.48358397 10.4707478,5.94138329 9.7131711,5.94303749 L9.91117882,5.94882718 C10.7285314,6.00341572 11.3806701,5.49309561 11.3806701,5.49309561 L15.4076572,3.39226403 C15.9846609,2.41173811 14.5159998,2.2905681 13.8040853,2.2872597" id="Fill-181" fill="#DD8F46"></path>
                    <path d="M14.0087763,2.31310655 C14.0087763,2.31310655 14.1005157,2.30648976 14.2445591,2.30483556 C13.9282448,2.28084968 13.6438941,2.28746648 13.515625,2.29201552 L14.0087763,2.31310655 Z" id="Fill-183" fill="#DD8F46"></path>
                    <path d="M9.91117882,5.94866176 C9.95352009,5.95197016 9.99503114,5.95362435 10.0369573,5.95279725 L9.91117882,5.94866176 Z" id="Fill-185" fill="#DD8F46"></path>
                    <path d="M1.33777668,5.19343762 L7.30042421,2.61702409 C7.30042421,2.61702409 8.19249672,2.14185569 10.142686,2.15881122 L10.0247946,2.15384863 C7.76285733,2.05211544 6.73504368,2.60048211 6.73504368,2.60048211 L0.772396148,5.17730919 C0.207845838,5.77902375 1.54533194,5.69920869 1.54533194,5.69920869 L1.65077001,5.70293063 C1.32822914,5.66447053 1.00817892,5.54578181 1.33777668,5.19343762" id="Fill-187" fill="#DD8F46"></path>
                    <path d="M12.6377908,2.6959707 C12.6357152,2.77330446 12.5252958,2.83244204 12.3908,2.82830654 C12.2567193,2.82499815 12.150451,2.75800312 12.1525266,2.68066936 C12.1550172,2.60292205 12.2658517,2.54337092 12.3995173,2.54833352 C12.5331829,2.55122836 12.6402814,2.61780984 12.6377908,2.6959707" id="Fill-189" fill="#EAD2AC"></path>
                    <path d="M14.1012214,3.02068978 C14.0987307,3.09802354 13.9887264,3.15798822 13.8542306,3.15385273 C13.7205651,3.14971723 13.6138816,3.08354931 13.6167874,3.00621555 C13.618863,2.92846824 13.7292824,2.86809001 13.862948,2.8730526 C13.9970287,2.87677455 14.1037121,2.94252892 14.1012214,3.02068978" id="Fill-191" fill="#EAD2AC"></path>
                    <path d="M13.3982732,2.99968147 C13.3957826,3.07701523 13.2857783,3.13697991 13.1512825,3.13284441 C13.0176169,3.12870892 12.9113486,3.06254099 12.913009,2.98520723 C12.9159148,2.90745992 13.0259191,2.84790879 13.1599998,2.85204429 C13.2940805,2.85576623 13.4007639,2.9223477 13.3982732,2.99968147" id="Fill-193" fill="#EAD2AC"></path>
                    <path d="M11.8768932,2.81308792 C11.8752327,2.86891711 11.7967768,2.91151271 11.7008863,2.90820431 C11.6054109,2.90613656 11.5294457,2.85816482 11.5315212,2.80357628 C11.5327666,2.7485742 11.6112224,2.70556504 11.7075281,2.70804634 C11.8025884,2.71052764 11.8789687,2.75808583 11.8768932,2.81308792" id="Fill-195" fill="#EAD2AC"></path>
                    <path d="M12.3228049,3.07316922 C12.3211445,3.1314797 12.2385375,3.1765566 12.1380807,3.1732482 C12.037624,3.1707669 11.9570925,3.12072741 11.9595832,3.06283048 C11.9608285,3.00452 12.0438506,2.9594431 12.1443074,2.96233794 C12.2451792,2.96481924 12.3248805,3.01485873 12.3228049,3.07316922" id="Fill-197" fill="#EAD2AC"></path>
                    <path d="M0.634828521,3.43907783 C0.543089095,3.53667552 0.587505921,5.12553279 0.582524595,5.19004651 C0.557202853,5.52626228 1.4941073,5.46960599 1.4941073,5.46960599 L9.85982964,5.7193899 C10.6767672,5.77356489 11.329736,5.26365833 11.329736,5.26365833 L15.3563081,3.16282675 C16.0192396,2.63803241 15.5414474,0.982180117 15.5414474,0.982180117 L10.3293196,3.770331 L0.634828521,3.43907783 Z" id="Fill-203" fill="#DD8F46"></path>
                    <path d="M0.772271615,3.23635586 L6.73491915,0.659942329 C6.73491915,0.659942329 7.7627328,0.111162112 10.02467,0.212895294 L13.4435203,0.35515633 C13.4435203,0.35515633 16.1587582,0.175262288 15.4078233,1.45230322 L11.3808361,3.55313479 C11.3808361,3.55313479 10.7282824,4.0626278 9.91134486,4.00845282 L1.54520741,3.75908245 C1.54520741,3.75908245 0.208136416,3.83807041 0.772271615,3.23635586" id="Fill-205" fill="#EAD2AC"></path>
                    <path d="M9.05297932,3.91643805 C8.60133908,3.83745009 8.13516996,3.75556728 7.69805858,3.6145469 C7.3477053,3.50123433 6.95168986,3.34367196 6.71590709,3.04632985 C6.48676608,2.75560454 6.46725588,2.41401263 6.5743544,2.06911233 C6.95874674,0.817297922 8.36223541,0.482736358 9.5847359,0.201936232 C7.62873512,0.183326504 6.73500217,0.659735554 6.73500217,0.659735554 L0.772354637,3.23614908 C0.207804327,3.83827719 1.54529043,3.75887568 1.54529043,3.75887568 L9.63413405,4.0003886 C9.43986233,3.97764338 9.24600572,3.95034911 9.05297932,3.91643805" id="Fill-207" fill="#EAD2AC"></path>
                    <path d="M13.8040853,0.34713347 C14.5525296,0.388488422 15.5836641,0.594436084 15.0847012,1.44221261 L11.057299,3.54263063 C11.057299,3.54263063 10.4707478,4.00125706 9.7131711,4.00291125 L9.91117882,4.00870095 C10.7285314,4.06246238 11.3806701,3.55296937 11.3806701,3.55296937 L15.4076572,1.4521378 C15.9846609,0.470784777 14.5159998,0.350441866 13.8040853,0.34713347" id="Fill-209" fill="#DD8F46"></path>
                    <path d="M14.0087763,0.372980315 C14.0087763,0.372980315 14.1005157,0.366363522 14.2445591,0.364709324 C13.9282448,0.339896353 13.6438941,0.347340244 13.515625,0.351889289 L14.0087763,0.372980315 Z" id="Fill-211" fill="#DD8F46"></path>
                    <path d="M9.91117882,4.00849417 C9.95352009,4.01097547 9.99503114,4.01180257 10.0369573,4.01180257 L9.91117882,4.00849417 Z" id="Fill-213" fill="#DD8F46"></path>
                    <path d="M1.33777668,3.25331139 L7.30042421,0.676897859 C7.30042421,0.676897859 8.19249672,0.200902358 10.142686,0.218684988 L10.0247946,0.212895294 C7.76285733,0.111162112 6.73504368,0.659942329 6.73504368,0.659942329 L0.772396148,3.23635586 C0.207845838,3.83807041 1.54533194,3.75908245 1.54533194,3.75908245 L1.65077001,3.7619773 C1.32822914,3.72434429 1.00817892,3.60565558 1.33777668,3.25331139" id="Fill-215" fill="#DD8F46"></path>
                    <path d="M12.6377908,0.755058719 C12.6357152,0.831978931 12.5252958,0.892357161 12.3908,0.887394567 C12.2567193,0.883672621 12.150451,0.817918247 12.1525266,0.740584486 C12.1550172,0.662010077 12.2658517,0.603286044 12.3995173,0.60659444 C12.5331829,0.610316386 12.6402814,0.676897859 12.6377908,0.755058719" id="Fill-217" fill="#EAD2AC"></path>
                    <path d="M14.1012214,1.07973645 C14.0987307,1.15707021 13.9887264,1.21786199 13.8542306,1.2128994 C13.7205651,1.2087639 13.6138816,1.14342308 13.6167874,1.06526222 C13.618863,0.987514906 13.7292824,0.927963775 13.862948,0.93209927 C13.9970287,0.935821216 14.1037121,1.00240269 14.1012214,1.07973645" id="Fill-219" fill="#EAD2AC"></path>
                    <path d="M13.3982732,1.05872813 C13.3957826,1.13606189 13.2857783,1.19685367 13.1512825,1.19271818 C13.0176169,1.18775559 12.9113486,1.12241476 12.913009,1.045081 C12.9159148,0.967333689 13.0259191,0.906955459 13.1599998,0.911090954 C13.2940805,0.9148129 13.4007639,0.981394373 13.3982732,1.05872813" id="Fill-221" fill="#EAD2AC"></path>
                    <path d="M11.8768932,0.872961688 C11.8752327,0.927963775 11.7967768,0.970559376 11.7008863,0.968078079 C11.6054109,0.965183232 11.5294457,0.918038586 11.5315212,0.86262295 C11.5327666,0.806793765 11.6112224,0.763784614 11.7075281,0.767920109 C11.8025884,0.770401407 11.8789687,0.817959602 11.8768932,0.872961688" id="Fill-223" fill="#EAD2AC"></path>
                    <path d="M12.3228049,1.13225724 C12.3211445,1.19056772 12.2385375,1.23564462 12.1380807,1.23233622 C12.037624,1.22985493 11.9570925,1.17981543 11.9595832,1.1219185 C11.9608285,1.06278092 12.0438506,1.01935822 12.1443074,1.02142597 C12.2451792,1.02473436 12.3248805,1.07394676 12.3228049,1.13225724" id="Fill-225" fill="#EAD2AC"></path>
                </g>
                <g id="Page-1" transform="translate(155.821293, 307.399913)">
                    <g id="Group-3" transform="translate(0.000000, 1.029234)">
                        <mask id="mask-6" fill="white">
                            <use xlink:href="#path-5"></use>
                        </mask>
                        <g id="Clip-2"></g>
                        <path d="M8.24815196,0.186260727 C8.24815196,0.186260727 0.316030924,0.17750067 0,8.59445613 C0,8.59445613 0.316030924,15.6758678 8.22190717,15.6660127 C8.22190717,15.6660127 15.9170961,16.5631886 16.4963039,8.38275474 C16.4963039,8.38275474 16.9708971,0.17750067 8.24815196,0.186260727" id="Fill-1" fill="#E63521" mask="url(#mask-6)"></path>
                    </g>
                    <path d="M8.76072714,2.20465103 C8.94917926,2.20939606 9.13726687,2.20647604 9.32498997,2.200271 C9.01223964,2.18713091 8.69766676,2.18311589 8.38564546,2.19881099 C8.51030817,2.19954099 8.63569991,2.20173101 8.76072714,2.20465103" id="Fill-6" fill="#E63521"></path>
                    <g id="Group-12" transform="translate(0.000000, 1.029234)" fill="#CA0909">
                        <path d="M12.7020009,1.16151065 C11.579672,0.564731721 10.1278252,0.184764217 8.2480426,0.186224227 C8.2480426,0.186224227 0.316286082,0.177464169 -0.000109353261,8.59441963 C-0.000109353261,8.59441963 0.316286082,15.6758313 8.22179782,15.6659762 C8.22179782,15.6659762 15.9169868,16.5631521 16.4961946,8.38271824 C16.4961946,8.38271824 16.6201283,6.23832911 15.5754401,4.1435803 C15.6352199,4.32790652 15.6920836,4.51332774 15.7427506,4.70020897 C16.0879424,5.96895733 16.1859958,7.26690588 16.0161337,8.57251949 C15.8240365,10.0431142 15.3636593,11.5217389 14.2172726,12.5338906 C12.9662713,13.6398479 11.263641,13.8738144 9.65396103,13.9106797 C8.82579233,13.9292948 7.99142695,13.9442599 7.16398728,13.9223597 C6.46594896,13.9041096 5.75004961,13.8303791 5.11288461,13.5223171 C3.99274271,12.9832086 3.16275146,11.9455067 2.90941641,10.7238437 C2.56677619,9.0747628 3.15801282,6.88255835 4.67948119,5.9791774 C5.83607418,5.29187787 7.20991565,5.35356328 8.50247119,5.24333255 C9.37328766,5.16887206 10.2528524,5.19551724 11.1171077,5.05535631 C11.713812,4.95972568 12.7730805,4.76663941 12.939662,4.0523297 C13.1412365,3.18982902 10.4642687,3.41649551 10.0746066,3.43985567 C9.20524815,3.49168601 8.34135739,3.67929724 7.47491505,3.72309753 C6.9164844,3.75083772 4.99223152,3.97421919 4.95614494,2.86242186 C4.90146831,1.15932064 7.48949548,0.847243583 9.02044114,0.800523275 C9.6229776,0.78300316 10.2266076,0.822423419 10.826228,0.880823804 C11.4561028,0.942509211 12.0816034,1.03339481 12.7020009,1.16151065" id="Fill-10"></path>
                    </g>
                    <path d="M9.47090367,0.971672903 C9.56640552,0.940647698 9.66372992,0.911447506 9.76652198,0.891372374 C10.1332199,0.820561907 10.5112177,0.819101897 10.8841123,0.829321965 C11.5391383,0.847937087 12.2032771,0.896482407 12.8491904,1.01291817 C13.2993613,1.09394871 13.7458871,1.20928947 14.1814776,1.34945039 C14.2314156,1.3655105 14.6061328,1.54691669 14.6524257,1.51954151 C12.2586828,2.91932574 9.54271231,2.75799467 9.54271231,2.75799467 C11.5770475,5.47616758 10.5604267,6.9347172 10.5604267,6.9347172 C7.86814938,5.76415448 7.8018084,3.13869218 7.8018084,3.13869218 C6.26758215,4.84872845 3.23630976,6.16857715 3.23630976,6.16857715 C3.23630976,6.16857715 3.49401894,3.38798882 6.49284986,2.27984152 C6.49284986,2.27984152 4.25876274,2.63133884 1.9131353,2.14807565 C2.10851313,2.18786092 2.89622111,1.64291233 3.09196345,1.56626182 C4.10238758,1.16986921 5.20175236,0.91509753 6.28908829,0.900862436 C6.7691491,0.895022398 7.25249052,0.910352499 7.72744818,0.985542994 C8.36388416,1.08628366 8.84868361,1.17570925 9.47090367,0.971672903" id="Fill-13" fill="#84A02F"></path>
                    <path d="M14.6523528,1.51954151 C14.6060599,1.54691669 14.2313427,1.3655105 14.1814047,1.34945039 C13.7458142,1.20928947 13.2992884,1.09394871 12.8491175,1.01291817 C12.2032042,0.896482407 11.5390654,0.847937087 10.8840394,0.829321965 C10.5115093,0.819101897 10.1335115,0.820561907 9.76644908,0.891372374 C9.66365702,0.911447506 9.56633261,0.940647698 9.47083077,0.971672903 C9.30825892,1.02496325 9.15516435,1.05781347 9.00607941,1.07606359 C9.72380131,1.38704564 11.9156052,0.981162965 12.8469304,1.28192495 C13.2989239,1.42756091 13.5602782,1.45165107 13.2420602,1.7305129 C12.8112084,2.10683038 11.2755241,2.31524676 10.7265707,2.29918665 C10.3201411,2.28787158 9.6395993,2.10099034 9.28784631,2.37145713 C8.96452517,2.62038877 9.22988908,3.13139213 9.36621615,3.41718902 C9.55284571,3.8092016 9.8174806,4.16215893 10.014681,4.54796647 C10.1513726,4.81551323 10.4448038,5.30899648 10.2825965,5.61961353 C10.1141925,5.94337066 9.6195512,5.78568962 9.39209642,5.62581857 C8.98384424,5.33856168 8.78482131,4.78193301 8.6302687,4.33006003 C8.54096354,4.06835331 8.4658743,3.80117155 8.37110147,3.54165484 C8.27049647,3.26534802 8.1272437,2.80873001 7.83053185,2.68170917 C7.52798783,2.55176831 7.35302261,2.91239069 7.16785109,3.111317 C6.83359463,3.47047937 6.49532854,3.82672172 6.1184243,4.14171879 C5.75391343,4.4464958 5.34201615,4.68666738 4.94579283,4.94508909 C4.72453473,5.08926504 4.21567756,5.50573278 3.92625593,5.35863681 C3.62589897,5.2060658 4.19891006,4.2336994 4.35637876,4.0522932 C4.72963789,3.61976535 5.00010495,3.40550894 5.4812593,3.111317 C5.71636881,2.96823606 6.22741305,2.75434465 6.43664229,2.57257345 C6.51537664,2.504683 6.96809914,2.06558511 6.75668283,2.02433984 C6.44320348,1.96411444 5.94455261,2.0633951 5.55962914,2.1090204 C4.89148071,2.18713091 3.92625593,2.20720604 3.13563185,1.96776447 C3.08168424,1.95170436 3.0700199,1.79621334 3.25081729,1.73489293 C4.06841517,1.45384108 4.42600033,1.24578971 5.28369441,1.1235139 C5.98938745,1.02277324 6.82994952,0.905242465 7.94863338,1.02094823 C7.87682473,1.00999816 7.80319354,0.997953076 7.72737528,0.985542994 C7.25241761,0.910352499 6.7690762,0.895022398 6.2893799,0.900862436 C5.20167946,0.91509753 4.10267919,1.16986921 3.09189055,1.56626182 C2.89614821,1.64291233 2.10844022,2.18786092 1.9130624,2.14807565 C4.25868984,2.63133884 6.49277696,2.27984152 6.49277696,2.27984152 C3.49394604,3.38798882 3.23660136,6.16857715 3.23660136,6.16857715 C3.23660136,6.16857715 6.26750924,4.84872845 7.80173549,3.13905718 C7.80173549,3.13905718 7.86807647,5.76415448 10.5603538,6.9347172 C10.5603538,6.9347172 11.5769746,5.47616758 9.54263941,2.75799467 C9.54263941,2.75799467 12.2589744,2.91932574 14.6523528,1.51954151" id="Fill-15" fill="#546B09"></path>
                    <path d="M7.98792765,2.13478957 C7.98792765,2.13478957 8.01417243,1.1529331 8.81390928,0.022155646 C8.81390928,0.022155646 9.09531167,-0.076030001 9.3008958,0.140781428 C9.3008958,0.140781428 9.15363341,0.781725651 8.96153618,1.89242797 C8.96153618,1.89242797 8.95752656,2.29831064 8.4993364,2.38481621 C8.4993364,2.38481621 8.07869085,2.47862183 7.98792765,2.13478957" id="Fill-17" fill="#718928"></path>
                </g>
                <g id="Page-1" transform="translate(202.071749, 263.927915) rotate(59.000000) translate(-202.071749, -263.927915) translate(182.571749, 247.927915)">
                    <path d="M31.6231003,2.59285626 C31.6231003,2.59285626 19.958124,17.9957564 4.90553449,4.98342063 L3.08423708,6.97218029 C3.08423708,6.97218029 4.86563941,14.4513061 15.0828288,18.1694472 C15.0828288,18.1694472 28.1765117,22.9743137 33.5143586,3.51747028 L31.6231003,2.59285626 Z" id="Fill-1" fill="#FAC446"></path>
                    <path d="M25.1715445,12.5750402 C27.6224904,11.1669868 29.5715677,8.71563064 31.0991448,6.37891041 C31.7594374,5.36802996 32.3775221,4.30504226 32.8123208,3.17489413 L33.5148212,3.517065 C28.1763961,22.9744874 15.0827132,18.1696209 15.0827132,18.1696209 C4.86552377,14.4514798 3.08412144,6.97235398 3.08412144,6.97235398 L4.07513851,5.8902603 C4.07513851,5.8902603 14.0650994,19.1654481 25.1715445,12.5750402" id="Fill-3" fill="#FAC446"></path>
                    <path d="M31.1149872,6.34608285 C31.7752798,5.3352024 32.3933645,4.27337264 32.8281631,3.14206657 L31.638827,2.56020239 C31.638827,2.56020239 19.9732725,17.9636815 4.92126125,4.95076676 L3.09996384,6.93952642 L4.09040272,5.85743273 C4.09040272,5.85743273 14.0809418,19.1326206 25.1873869,12.5422126 C27.6383328,11.1341592 29.5879883,8.68396102 31.1149872,6.34608285 Z" id="Fill-5" fill="#EBA90F"></path>
                    <path d="M31.6236785,5.07217663 C29.716809,8.03302579 27.534143,10.8717124 24.2581204,12.3810855 C23.4099162,12.7724687 22.5027366,13.1065341 21.5972916,13.3415956 C20.5779433,13.6056056 19.5215908,13.674503 18.4710202,13.6310803 C17.3319866,13.5836048 16.1605743,13.4973384 15.0556539,13.201485 C12.5150885,12.5235119 10.2428032,11.0575616 8.21162294,9.42544704 C7.22291863,8.63225905 6.12031096,7.8819148 5.30448535,6.90229869 C5.11021363,6.66723714 4.92808389,6.47444035 5.10154078,6.17627115 C5.18190915,6.03963438 5.39930846,5.79415139 5.58432915,5.85725904 C5.64446087,5.87868091 5.64388268,5.93831475 5.61381682,5.9788426 C7.2078857,7.69432874 9.30208863,8.84416183 11.4471723,9.72014243 C14.1675546,10.8306056 17.1359803,11.3725209 20.0598854,10.9145562 C22.5391626,10.5266467 24.6952318,9.16085805 26.6645458,7.67580172 C27.3872829,7.1286757 28.0926742,6.55723297 28.789971,5.9788426 C29.3768335,5.4919294 29.8729202,4.92627636 30.4441716,4.42488892 C30.7217026,4.18056386 31.3444129,3.56743533 31.7774769,3.78223296 C32.2938003,4.03929534 31.8248885,4.76069113 31.6236785,5.07217663 M32.8280475,3.14189288 L31.6387114,2.5600287 C31.6387114,2.5600287 19.9737351,17.9640868 4.92114561,4.95059307 L3.0998482,6.9399317 L4.09028708,5.85725904 C4.09028708,5.85725904 14.0808261,19.1324469 25.1872712,12.542039 C27.6382172,11.1345645 29.5878727,8.68378732 31.1148716,6.34590916 C31.7751641,5.33502871 32.3932489,4.27319895 32.8280475,3.14189288" id="Fill-7" fill="#FAC446"></path>
                    <path d="M7.1889789,10.077077 C9.41211812,12.2783184 11.6711051,13.3569383 14.0370572,14.4309264 C16.6782275,15.6293929 19.9166678,15.6178135 22.6179698,14.6190914 C24.8121996,13.8073764 26.8907914,12.3576372 28.4409179,10.6039391 C29.2654163,9.67064055 30.3073141,8.29269354 30.9282898,7.18396727 C31.0485532,6.97032759 31.5122613,6.36819948 31.7666648,6.50136243 C32.2240128,6.70863345 32.1956815,6.60789278 31.8724735,7.53887547 C31.4139691,8.86008349 29.6337231,11.6918225 28.7976609,12.6419112 C28.3744261,13.1230347 28.300996,13.3870447 27.5759461,14.0517015 C25.1857101,16.2413635 22.4236981,18.1172241 19.0597907,17.9556917 C15.6652392,17.7924223 12.3180993,16.5221636 9.61679726,14.4633487 C8.18173053,13.3696756 6.54429743,12.0432569 5.49257045,10.5744117 C5.32605183,10.3434029 3.79327105,8.46464743 4.63916252,7.93141668 C5.07396114,7.65814315 5.75506855,8.56480913 6.0539926,8.82302945 L7.1889789,10.077077 Z" id="Fill-9" fill="#FAC446"></path>
                    <polygon id="Fill-11" fill="#683B10" points="4.92137689 4.95059307 4.12925706 4.28477834 2.51957706 6.00200138 3.08389016 6.97235398"></polygon>
                    <polygon id="Fill-13" fill="#92521E" points="4.12919924 4.28454675 3.65681829 4.05353799 2.45880933 5.30642762 2.51951924 6.00234876"></polygon>
                    <path d="M32.6056179,3.28547727 C32.6056179,3.28547727 22.3791775,23.0879653 2.71610372,11.2700433 L1.03704097,13.8875637 C1.03704097,13.8875637 4.53219743,22.036557 16.8724992,24.2470619 C16.8724992,24.2470619 32.6952373,27.1251185 34.9363004,3.96345036 L32.6056179,3.28547727 Z" id="Fill-17" fill="#FAC446"></path>
                    <path d="M27.2370114,15.9006979 C29.7451981,13.8169873 31.4786107,10.6471302 32.7540971,7.69091282 C33.30569,6.41254853 33.7994639,5.08265597 34.0706349,3.71223556 L34.9361848,3.96350826 C32.6951217,27.1251764 16.8723836,24.2471198 16.8723836,24.2471198 C4.53208179,22.0366149 1.03750352,13.8870426 1.03750352,13.8870426 L1.95104317,12.463357 C1.95104317,12.463357 15.9125888,25.5781703 27.2370114,15.9006979" id="Fill-19" fill="#FAC446"></path>
                    <path d="M27.2488643,15.8594174 C29.757051,13.7774437 31.4904636,10.6075866 32.7653718,7.65079024 C33.3169647,6.37126802 33.8107386,5.04311237 34.0824878,3.67269196 L32.616777,3.24599156 C32.616777,3.24599156 22.3897584,23.0479007 2.72784097,11.2288207 L1.04935641,13.847499 L1.96231787,12.4226555 C1.96231787,12.4226555 15.9238635,25.5380478 27.2488643,15.8594174" id="Fill-21" fill="#EBA90F"></path>
                    <path d="M6.31267466,16.6062879 C9.27127112,18.6697346 12.0506288,19.4501852 14.9496717,20.2040033 C18.1869556,21.0464037 21.8636636,20.3933263 24.736688,18.7258946 C27.0708397,17.3728433 29.1482751,15.3151863 30.5636834,13.0155201 C31.3170645,11.7921579 32.2306041,10.0222486 32.718018,8.63966986 C32.8122629,8.37218603 33.2216212,7.59694609 33.5367346,7.69768676 C34.0975785,7.84242909 34.0449633,7.73531976 33.861099,8.85678336 C33.5997572,10.4483701 32.1334683,14.0165581 31.3702579,15.2613421 C30.9834491,15.8912607 30.9522268,16.206799 30.2595556,17.1036225 C27.9739719,20.0638927 25.2038653,22.739889 21.3502312,23.2198546 C17.4607494,23.7038729 13.4076399,22.9193695 9.93329828,21.1129852 C8.08713871,20.152475 5.96576086,18.9679038 4.4827044,17.5060062 C4.2479594,17.2767344 2.13698897,15.4437175 2.99270966,14.6725303 C3.43329017,14.2753573 4.38556853,15.1710229 4.77584655,15.4060844 L6.31267466,16.6062879 Z" id="Fill-25" fill="#FAC446"></path>
                    <polygon id="Fill-27" fill="#683B10" points="2.72778316 11.2288207 1.696871 10.6272716 0.2045635 12.8979893 1.0371566 13.8874479"></polygon>
                    <g id="Group-31" transform="translate(0.000000, 10.327481)">
                        <mask id="mask-8" fill="white">
                            <use xlink:href="#path-7"></use>
                        </mask>
                        <g id="Clip-30"></g>
                        <polygon id="Fill-29" fill="#92521E" mask="url(#mask-8)" points="1.69675536 0.299732423 1.113362 0.130094409 -0.000231275862 1.79173639 0.204447862 2.57045014"></polygon>
                    </g>
                    <g id="Group-36" transform="translate(3.469138, 3.379849)" fill="#FAC446">
                        <path d="M30.6406404,0.503298041 C30.6406404,0.503298041 25.8867651,24.6717938 1.38424385,18.2029695 L0.409416095,21.4984629 C0.409416095,21.4984629 6.62668946,29.067329 20.4014798,27.6025366 C20.4014798,27.6025366 38.0773158,25.7712566 33.3234404,0.503298041 L30.6406404,0.503298041 Z" id="Fill-34"></path>
                    </g>
                    <path d="M32.2978476,18.9244811 C34.3186204,15.9416311 35.1818576,12.0422726 35.6241727,8.51113867 C35.8155535,6.98381757 35.930035,5.42060037 35.7964732,3.8834368 L36.7921158,3.8834368 C41.5465693,29.1508164 23.8707334,30.9820964 23.8707334,30.9820964 C10.095943,32.4468888 3.87866966,24.8780227 3.87866966,24.8780227 L4.40886958,23.0855337 C4.40886958,23.0855337 23.2607433,32.6900559 32.2978476,18.9244811" id="Fill-37" fill="#FAC446"></path>
                    <path d="M32.2978476,18.8803636 C34.3186204,15.8946188 35.1818576,11.9964183 35.6241727,8.46586327 C35.8155535,6.93854217 35.930035,5.374746 35.7964732,3.83758243 L34.109894,3.83758243 C34.109894,3.83758243 29.3560186,28.0060782 4.85349742,21.5372539 L3.87866966,24.8321684 L4.40886958,23.0402583 C4.40886958,23.0402583 23.2607433,32.6447805 32.2978476,18.8803636" id="Fill-39" fill="#EBA90F"></path>
                    <path d="M35.495988,6.7208497 C34.9646317,11.1800715 34.0516703,15.6531886 31.1439545,19.2155869 C30.3905734,20.137306 29.5394782,21.0300767 28.6346114,21.8047377 C27.6135285,22.6784024 26.4432726,23.3488489 25.215776,23.8867114 C23.8853616,24.4697336 22.4948154,25.027281 21.0655306,25.3080811 C17.7773661,25.9542109 14.3567961,25.5466165 11.1195122,24.8171152 C9.54452355,24.4622069 7.86256984,24.2201978 6.38182614,23.554962 C6.02797407,23.3963244 5.71170433,23.2770567 5.74408295,22.8387769 C5.75911588,22.6367166 5.87186286,22.2349119 6.11817166,22.2042266 C6.1996964,22.1943841 6.23265321,22.2621235 6.21993303,22.3258101 C9.00333803,23.3963244 12.0428811,23.5410667 14.9899137,23.3424803 C18.7238625,23.0900496 22.4265891,22.0490628 25.5181692,19.8883492 C28.1402592,18.0553323 29.8459187,15.2838061 31.270578,12.4792787 C31.7938397,11.4498712 32.2812536,10.4001998 32.7565254,9.34647562 C33.1572109,8.45949461 33.4087234,7.53545955 33.7833903,6.64037296 C33.96552,6.20672493 34.3355614,5.15531663 34.9513334,5.15879044 C35.6856342,5.1634222 35.5520724,6.25246351 35.495988,6.7208497 M35.7966467,3.83758243 L34.1100674,3.83758243 C34.1100674,3.83758243 29.3561921,28.0060782 4.85367088,21.5372539 L3.87826493,24.8321684 L4.40846484,23.0402583 C4.40846484,23.0402583 23.2609167,32.6447805 32.2980211,18.8803636 C34.3187939,15.8946188 35.1820311,11.9964183 35.6243461,8.46586327 C35.8157269,6.93854217 35.9302085,5.374746 35.7966467,3.83758243" id="Fill-41" fill="#FAC446"></path>
                    <path d="M10.3131111,26.135023 C14.0875331,27.4110714 17.2768273,27.3803861 20.5852285,27.2860141 C24.2792822,27.1800627 27.9802742,25.3522565 30.5150576,22.6965242 C32.5751474,20.5392844 34.1460886,17.715072 34.939943,14.8370155 C35.3625997,13.3079575 35.7869909,11.146086 35.8783449,9.52844568 C35.8956905,9.21580224 36.0916968,8.26745048 36.4565345,8.27729296 C37.0960123,8.257608 37.0075493,8.15918321 37.1578786,9.40570418 C37.3712305,11.1761924 36.9138825,15.4154059 36.4871786,16.9722544 C36.2715138,17.7596527 36.3351147,18.1041394 35.8754539,19.2707626 C34.3617534,23.115698 32.2467356,26.8095223 28.3052168,28.5099552 C24.3278501,30.2237045 19.785014,30.6446152 15.5422583,29.7993199 C13.288475,29.3500397 10.6721668,28.7479116 8.64792485,27.6553965 C8.32818597,27.4834426 5.52454434,26.191762 6.19524434,25.1073525 C6.53984537,24.5509629 7.82689554,25.2075142 8.31257485,25.3360454 L10.3131111,26.135023 Z" id="Fill-43" fill="#FAC446"></path>
                    <polygon id="Fill-45" fill="#683B10" points="4.85361306 21.537196 3.57407935 21.2170259 2.69002737 24.085819 3.87820711 24.878428"></polygon>
                    <polygon id="Fill-47" fill="#92521E" points="3.57413717 21.2171417 2.90343717 21.2171417 2.23273717 23.3228532 2.69008519 24.0859348"></polygon>
                    <polygon id="Fill-49" fill="#683B10" points="31.6389427 2.56008659 34.2321233 3.91313792 36.7923471 3.88303152 36.7923471 1.12192677 34.4154094 1.12192677 31.6389427 -0.000115793866"></polygon>
                    <polygon id="Fill-51" fill="#7B4617" points="31.6389427 -5.78969332e-05 34.2153558 -5.78969332e-05 36.7923471 1.1214057 34.4154094 1.1214057"></polygon>
                </g>
                <g id="Page-1" transform="translate(214.218448, 255.292673)">
                    <path d="M4.9295278,3.91317914 C4.81645265,3.91486698 4.70295559,3.91993051 4.58988044,3.92921364 C2.83974724,4.07310224 1.12336781,5.13180164 0.68878796,6.92935422 C0.537739819,7.55723174 0.41791392,8.37456962 0.498079134,9.01763772 C0.611576201,9.9218995 1.13813508,10.6696139 1.59170143,11.4405361 C2.81780728,13.5229121 3.13720238,15.6770215 2.75705049,18.0416892 C2.54735517,19.34386 2.15792099,21.565905 3.97176445,21.9022077 C3.97176445,21.9022077 6.175464,22.3659425 6.5425363,20.9447789 C6.5425363,20.9447789 7.50873809,22.3659425 9.71201572,21.9785826 C9.71201572,21.9785826 12.204732,21.6992446 13.538428,17.3505176 C13.538428,17.3505176 17.133205,9.72568778 14.2632903,4.76891544 C14.2632903,4.76891544 13.0456229,2.5650147 9.91453837,3.34817376 C9.91453837,3.34817376 8.40701041,3.57983019 7.76864215,4.85541738 C7.81210014,4.76975936 6.41680349,4.15200889 6.28052262,4.10812498 C5.8425674,3.96676815 5.38731337,3.90684973 4.9295278,3.91317914" id="Fill-1" fill="#B12716"></path>
                    <g id="Group-5" transform="translate(2.953455, 0.333982)">
                        <mask id="mask-10" fill="white">
                            <use xlink:href="#path-9"></use>
                        </mask>
                        <g id="Clip-4"></g>
                        <path d="M6.34444383,0.510488055 C6.34444383,0.510488055 5.33056483,2.55952921 5.29723298,4.72840721 C5.29723298,4.72840721 6.93597873,4.18618771 9.34093516,5.00268166 C9.34093516,5.00268166 10.0214956,5.54785489 9.34093516,6.2284775 C9.34093516,6.2284775 7.21444737,5.41409335 5.21495815,7.2281024 C5.21495815,7.2281024 4.71287076,7.50153293 4.44073095,7.2281024 C4.44073095,7.2281024 3.3517498,6.01538734 0.0848063583,6.05378577 C0.0848063583,6.05378577 -0.301252437,5.57950194 0.572548399,5.20058123 C0.572548399,5.20058123 1.88641407,4.59084802 3.82134919,4.72840721 C3.82134919,4.72840721 3.57579048,2.63885782 5.06686347,0.129457543 C5.06686347,0.129457543 5.7027002,-0.0971353531 6.34444383,0.510488055" id="Fill-3" fill="#84A02F" mask="url(#mask-10)"></path>
                    </g>
                    <g id="Group-10" transform="translate(0.000000, 4.975550)">
                        <mask id="mask-12" fill="white">
                            <use xlink:href="#path-11"></use>
                        </mask>
                        <g id="Clip-9"></g>
                        <path d="M4.65143889,0.911435112 C4.53330068,0.912279033 4.41474055,0.918608443 4.29660234,0.92831354 C2.47052314,1.07895351 0.679041558,2.18195878 0.226319058,4.05799605 C0.0685201622,4.71287906 -0.0567907255,5.56608359 0.0267498663,6.23742306 C0.145731921,7.18092719 0.694652678,7.96113252 1.16847129,8.76581158 C2.44731742,10.9384872 2.78063594,13.1862719 2.38402909,15.653898 C2.16505148,17.0126115 1.75958426,19.3304416 3.65232717,19.6815129 C3.65232717,19.6815129 5.95138113,20.1663458 6.33448647,18.6835759 C6.33448647,18.6835759 7.34245856,20.1663458 9.64151252,19.7625294 C9.64151252,19.7625294 12.2426628,19.4705326 13.634584,14.9323452 C13.634584,14.9323452 17.3854722,6.97669821 14.3902467,1.80303807 C14.3902467,1.80303807 13.119839,-0.496225783 9.85331746,0.321534053 C9.85331746,0.321534053 8.28039157,0.563317534 7.61417644,1.89418158 C7.65890019,1.80472591 6.20369059,1.16081389 6.06065897,1.11482017 C5.60498302,0.967555885 5.1290548,0.90426178 4.65143889,0.911435112" id="Fill-8" fill="#E63521" mask="url(#mask-12)"></path>
                    </g>
                    <g id="Group-17" transform="translate(0.000000, 4.975550)" fill="#E53522">
                        <path d="M14.3902467,1.80316466 C14.3902467,1.80316466 13.5945014,0.366388476 11.645221,0.168910868 C12.7417967,0.520404131 13.4999909,1.47276943 13.8290902,2.5660696 C14.1594552,3.6602137 14.2197901,4.82271543 14.2759058,5.95989951 C14.3763232,8.00514302 14.1894117,10.0697967 13.6641186,12.0521681 C13.1367159,14.0412908 12.5953897,16.0869563 10.6642519,17.1692855 C9.82673636,17.6385058 8.97065625,17.775643 8.12343652,17.2621169 C7.65805635,16.9802471 7.24288492,16.5367664 7.12010557,15.9899053 C6.99859198,15.4519055 7.07327221,14.9130616 7.0180004,14.3699982 C6.97327665,13.9260956 6.99310699,12.6623233 6.71084105,12.2905759 C6.56401214,12.0977399 6.30917114,13.1454683 6.27162006,13.2530682 C6.0458917,13.9062634 5.92100273,14.587308 5.71004164,15.2438788 C5.6045611,15.5708984 5.41891534,16.315237 4.99277393,16.3844386 C3.71899087,16.5920433 4.11770733,13.5805098 4.14935149,12.9775279 C4.18732449,12.2496457 4.36664142,11.3095173 4.12867731,10.6002013 C3.73628968,9.42926039 2.73211489,8.52499861 2.06632169,7.51313685 C1.01531354,5.91643756 0.625035519,3.2736977 2.32875728,1.93101875 C3.0291481,1.37825023 3.87046093,1.09427068 4.74890291,0.914093464 C4.71683683,0.913249543 4.68434882,0.910717778 4.65143889,0.9115617 C4.53330068,0.912405621 4.41474055,0.918313071 4.29660234,0.928440128 C2.47052314,1.0790801 0.679041558,2.18166341 0.226319058,4.05812264 C0.0685201622,4.71300564 -0.0567907255,5.56621018 0.0267498663,6.23754965 C0.145731921,7.18105378 0.694652678,7.96125911 1.16847129,8.76593817 C2.44731742,10.9381918 2.78063594,13.1863985 2.38402909,15.6540246 C2.16505148,17.0127381 1.75916234,19.3305682 3.65232717,19.6816395 C3.65232717,19.6816395 5.95138113,20.1664724 6.33448647,18.6837025 C6.33448647,18.6837025 7.34245856,20.1664724 9.64151252,19.762656 C9.64151252,19.762656 12.2426628,19.4706592 13.634584,14.9320499 C13.634584,14.9320499 17.3854722,6.9768248 14.3902467,1.80316466" id="Fill-15"></path>
                    </g>
                </g>
                <polygon id="Page-1" fill="#F6A653" points="224.840057 268.029998 221.670014 269.864112 219.02683 268.031232 215.327953 269.86329 212.422574 268.032054 209.251544 269.864112 205.951144 268.031643 203.180072 269.864112 200.537382 268.032877 197.63151 269.866168 194.326666 268.032465 191.819765 269.865346 188.778103 268.034522 188.786498 324.859987 230.044951 324.856697 230.044951 322.897156 230.032607 268.030409 227.745929 269.86329"></polygon>
            </g>
        </g>
    </g>
</svg>