<?xml version="1.0" encoding="UTF-8"?>
<svg width="58px" height="58px" viewBox="0 0 58 58" version="1.1" xmlns="http://www.w3.org/2000/svg" xmlns:xlink="http://www.w3.org/1999/xlink">
    <!-- Generator: Sketch 44.1 (41455) - http://www.bohemiancoding.com/sketch -->
    <title>grocery</title>
    <desc>Created with Sketch.</desc>
    <defs></defs>
    <g id="Page-1" stroke="none" stroke-width="1" fill="none" fill-rule="evenodd">
        <g id="Artboard-2-Copy" transform="translate(-371.000000, -271.000000)" fill-rule="nonzero">
            <g id="grocery" transform="translate(371.000000, 271.000000)">
                <rect id="Rectangle-path" fill="#F9EAB0" x="1.999" y="13" width="53.001" height="30"></rect>
                <path d="M4,20.95 C2.267,20.755 0.841,14.591 0.276,13 L0,13 L0,43 L4,43 L4,20.95 Z" id="Shape" fill="#556080"></path>
                <path d="M57.724,15 C57.158,16.591 55.733,20.755 54,20.95 L54,43 L58,43 L58,15 L57.724,15 Z" id="Shape" fill="#556080"></path>
                <path d="M10,11 L10,11 L13,6 L13,0 L6.896,0 C5.849,0 5,0.849 5,1.896 L5,6 L0,11 L0,11 L10,11 Z" id="Shape" fill="#E38376"></path>
                <polygon id="Shape" fill="#F3D55B" points="20 11 20 11 21 6 21 0 13 0 13 6 10 11 10 11"></polygon>
                <polygon id="Shape" fill="#E38376" points="29 11 29 11 29 6 29 0 21 0 21 6 20 11 20 11"></polygon>
                <path d="M5.5,21 L4.5,21 C2.015,21 0,18.985 0,16.5 L0,11 L10,11 L10,16.5 C10,18.985 7.985,21 5.5,21 Z" id="Shape" fill="#E38376"></path>
                <path d="M15.5,21 L14.5,21 C12.015,21 10,18.985 10,16.5 L10,11 L20,11 L20,16.5 C20,18.985 17.985,21 15.5,21 Z" id="Shape" fill="#F0C419"></path>
                <path d="M43.5,21 L42.5,21 C40.015,21 38,18.985 38,16.5 L38,11 L48,11 L48,16.5 C48,18.985 45.985,21 43.5,21 Z" id="Shape" fill="#E38376"></path>
                <path d="M53.5,21 L52.5,21 C50.015,21 48,18.985 48,16.5 L48,11 L58,11 L58,16.5 C58,18.985 55.985,21 53.5,21 Z" id="Shape" fill="#F0C419"></path>
                <path d="M24.5,21 L24.5,21 C22.015,21 20,18.985 20,16.5 L20,11 L29,11 L29,16.5 C29,18.985 26.985,21 24.5,21 Z" id="Shape" fill="#E38376"></path>
                <path d="M33.5,21 L33.5,21 C31.015,21 29,18.985 29,16.5 L29,11 L38,11 L38,16.5 C38,18.985 35.985,21 33.5,21 Z" id="Shape" fill="#F0C419"></path>
                <rect id="Rectangle-path" fill="#F5A653" x="0" y="43" width="58" height="12"></rect>
                <rect id="Rectangle-path" fill="#EB8503" x="4" y="43" width="2" height="12"></rect>
                <rect id="Rectangle-path" fill="#EB8503" x="8" y="43" width="2" height="12"></rect>
                <rect id="Rectangle-path" fill="#EB8503" x="12" y="43" width="2" height="12"></rect>
                <rect id="Rectangle-path" fill="#EB8503" x="16" y="43" width="2" height="12"></rect>
                <rect id="Rectangle-path" fill="#EB8503" x="20" y="43" width="2" height="12"></rect>
                <rect id="Rectangle-path" fill="#EB8503" x="24" y="43" width="2" height="12"></rect>
                <rect id="Rectangle-path" fill="#EB8503" x="28" y="43" width="2" height="12"></rect>
                <rect id="Rectangle-path" fill="#EB8503" x="32" y="43" width="2" height="12"></rect>
                <rect id="Rectangle-path" fill="#EB8503" x="36" y="43" width="2" height="12"></rect>
                <rect id="Rectangle-path" fill="#EB8503" x="40" y="43" width="2" height="12"></rect>
                <rect id="Rectangle-path" fill="#EB8503" x="44" y="43" width="2" height="12"></rect>
                <rect id="Rectangle-path" fill="#EB8503" x="48" y="43" width="2" height="12"></rect>
                <rect id="Rectangle-path" fill="#EB8503" x="52" y="43" width="2" height="12"></rect>
                <rect id="Rectangle-path" fill="#556080" x="0" y="55" width="4" height="3"></rect>
                <rect id="Rectangle-path" fill="#556080" x="54" y="55" width="4" height="3"></rect>
                <path d="M48,11 L48,11 L45,6 L45,0 L51.104,0 C52.151,0 53,0.849 53,1.896 L53,6 L58,11 L58,11 L48,11 Z" id="Shape" fill="#F3D55B"></path>
                <polygon id="Shape" fill="#E38376" points="38 11 38 11 37 6 37 0 45 0 45 6 48 11 48 11"></polygon>
                <polygon id="Shape" fill="#F3D55B" points="29 11 29 11 29 6 29 0 37 0 37 6 38 11 38 11"></polygon>
            </g>
        </g>
    </g>
</svg>